<svg xmlns="http://www.w3.org/2000/svg" width="195.837" height="56" viewBox="0 0 195.837 56">
  <g id="Group_51" data-name="Group 51" transform="translate(-68.499 -2725)">
    <path id="Path_87" data-name="Path 87" d="M.978,0H5.318l4.819-15.784h1.21v-3.944H7.834ZM4.648-4.785H15.791l-1.012-3.09H5.66ZM15.2,0h4.341L12.688-19.729h-2.3v3.944Zm6.556,4.99h3.992v-7.4H26A4.314,4.314,0,0,0,27.043-.995a4.725,4.725,0,0,0,1.545.913A5.551,5.551,0,0,0,30.5.239a5.683,5.683,0,0,0,3.274-.93,5.9,5.9,0,0,0,2.1-2.666,10.632,10.632,0,0,0,.735-4.156V-7.54a10.439,10.439,0,0,0-.745-4.139,6.039,6.039,0,0,0-2.112-2.673,5.6,5.6,0,0,0-3.254-.94,5.83,5.83,0,0,0-1.938.308,4.578,4.578,0,0,0-1.528.878A4.282,4.282,0,0,0,26-12.722h-.246v-2.331H21.759Zm7.383-8.06a3.107,3.107,0,0,1-1.818-.537A3.43,3.43,0,0,1,26.13-5.144a6.114,6.114,0,0,1-.42-2.375v-.027a6.12,6.12,0,0,1,.417-2.379,3.392,3.392,0,0,1,1.189-1.524,3.133,3.133,0,0,1,1.825-.533,3.1,3.1,0,0,1,1.822.533,3.4,3.4,0,0,1,1.176,1.528,6.191,6.191,0,0,1,.414,2.382v.027a6.177,6.177,0,0,1-.414,2.372,3.417,3.417,0,0,1-1.176,1.535A3.083,3.083,0,0,1,29.142-3.069Zm9.611,8.06h3.992v-7.4h.246A4.314,4.314,0,0,0,44.037-.995a4.725,4.725,0,0,0,1.545.913A5.551,5.551,0,0,0,47.5.239a5.683,5.683,0,0,0,3.274-.93,5.9,5.9,0,0,0,2.1-2.666,10.632,10.632,0,0,0,.735-4.156V-7.54a10.439,10.439,0,0,0-.745-4.139,6.039,6.039,0,0,0-2.112-2.673,5.6,5.6,0,0,0-3.254-.94,5.83,5.83,0,0,0-1.938.308,4.578,4.578,0,0,0-1.528.878,4.282,4.282,0,0,0-1.039,1.384h-.246v-2.331H38.753Zm7.383-8.06a3.107,3.107,0,0,1-1.818-.537,3.43,3.43,0,0,1-1.193-1.538A6.114,6.114,0,0,1,42.7-7.52v-.027a6.12,6.12,0,0,1,.417-2.379,3.392,3.392,0,0,1,1.189-1.524,3.133,3.133,0,0,1,1.825-.533,3.1,3.1,0,0,1,1.822.533,3.4,3.4,0,0,1,1.176,1.528,6.191,6.191,0,0,1,.414,2.382v.027a6.177,6.177,0,0,1-.414,2.372,3.417,3.417,0,0,1-1.176,1.535A3.083,3.083,0,0,1,46.136-3.069ZM56.144,0h3.678V-13.426h2.03l-3.924-5.756L65.146,0h2.591l7.226-19.182-3.931,5.756h2.03V0H76.74V-19.729H72.017L66.568-5.284h-.239L60.867-19.729H56.144ZM84.034.239a5.976,5.976,0,0,0,1.822-.267A4.644,4.644,0,0,0,87.333-.8a3.847,3.847,0,0,0,1.015-1.193h.246V0h3.938V-10.274a5,5,0,0,0-.728-2.748,4.609,4.609,0,0,0-2.123-1.747,8.524,8.524,0,0,0-3.4-.6,9.215,9.215,0,0,0-3.312.547A5.542,5.542,0,0,0,80.7-13.3a4.216,4.216,0,0,0-1,2.307l-.014.13h3.691l.021-.055a1.871,1.871,0,0,1,.916-1.036,3.684,3.684,0,0,1,1.757-.366,2.9,2.9,0,0,1,1.876.53,1.847,1.847,0,0,1,.646,1.514v4.8a2.517,2.517,0,0,1-.42,1.425,2.947,2.947,0,0,1-1.148,1,3.6,3.6,0,0,1-1.651.369,2.766,2.766,0,0,1-1.7-.492,1.589,1.589,0,0,1-.66-1.347v-.027a1.54,1.54,0,0,1,.632-1.3,3.525,3.525,0,0,1,1.911-.55l5-.321V-9.153l-5.6.335a9.591,9.591,0,0,0-3.179.663A4.459,4.459,0,0,0,79.8-6.631a3.961,3.961,0,0,0-.677,2.324v.027a4.449,4.449,0,0,0,.629,2.386,4.222,4.222,0,0,0,1.74,1.576A5.589,5.589,0,0,0,84.034.239ZM95.771,0h3.992V-20.809H95.771Zm9.468,0h4.717L103.6-8.921l-2.974,2.393ZM99.483-4.751l1.75-1.859,2.14-1.6,6.193-6.843h-4.532L100.01-9.105h-.656ZM117.011.321a8.721,8.721,0,0,0,2.857-.42,6.514,6.514,0,0,0,2.023-1.09,5.74,5.74,0,0,0,1.282-1.442,5.282,5.282,0,0,0,.639-1.477l.034-.144-3.719.007-.041.082a2.336,2.336,0,0,1-.513.632,3.283,3.283,0,0,1-.991.608,3.872,3.872,0,0,1-1.49.256,3.5,3.5,0,0,1-1.863-.479,3.108,3.108,0,0,1-1.2-1.381,5.117,5.117,0,0,1-.42-2.174V-8.306a5.223,5.223,0,0,1,.427-2.225,3.181,3.181,0,0,1,1.172-1.384,3.127,3.127,0,0,1,1.709-.472,3.14,3.14,0,0,1,1.7.458,3.046,3.046,0,0,1,1.145,1.364,5.439,5.439,0,0,1,.414,2.259v1.593l1.873-2.365h-10.4v2.5H123.97V-7.813A8.669,8.669,0,0,0,123.1-11.8a6.31,6.31,0,0,0-2.464-2.639,7.356,7.356,0,0,0-3.794-.94,7.283,7.283,0,0,0-3.811.967,6.5,6.5,0,0,0-2.5,2.731,9.176,9.176,0,0,0-.885,4.163V-7.5a9.114,9.114,0,0,0,.889,4.167,6.367,6.367,0,0,0,2.536,2.7A7.751,7.751,0,0,0,117.011.321Zm9.3-.321h3.992V-8.422a3.546,3.546,0,0,1,.451-1.832,3,3,0,0,1,1.282-1.179A4.362,4.362,0,0,1,134-11.847a7.38,7.38,0,0,1,.93.058,7.967,7.967,0,0,1,.9.167V-15.1a4.329,4.329,0,0,0-.687-.14,6.2,6.2,0,0,0-.8-.051,4.219,4.219,0,0,0-2.447.677,3.4,3.4,0,0,0-1.347,1.907h-.246v-2.345h-3.992Z" transform="translate(128.499 2762)" fill="#212936"/>
    <g id="Group_9" data-name="Group 9" transform="translate(-819.501 637)">
      <circle id="Ellipse_28" data-name="Ellipse 28" cx="28" cy="28" r="28" transform="translate(888 2088)" fill="#76d6c3"/>
      <path id="Icon_material-apps" data-name="Icon material-apps" d="M6,12h6V6H6Zm9,18h6V24H15ZM6,30h6V24H6Zm0-9h6V15H6Zm9,0h6V15H15ZM24,6v6h6V6Zm-9,6h6V6H15Zm9,9h6V15H24Zm0,9h6V24H24Z" transform="translate(898 2098)" fill="#fff"/>
    </g>
  </g>
</svg>
