<svg xmlns="http://www.w3.org/2000/svg" width="203.596" height="56" viewBox="0 0 203.596 56">
  <g id="Group_13" data-name="Group 13" transform="translate(-313 -2088)">
    <path id="Path_85" data-name="Path 85" d="M2.393,0h7.759a10.077,10.077,0,0,0,5.024-1.166,7.606,7.606,0,0,0,3.148-3.4A12.32,12.32,0,0,0,19.407-9.98v-.027a11.638,11.638,0,0,0-1.09-5.264,7.561,7.561,0,0,0-3.158-3.315,10.223,10.223,0,0,0-5.007-1.142H2.393ZM6.521-3.4v-12.92H9.5a5.953,5.953,0,0,1,3.066.749A4.864,4.864,0,0,1,14.52-13.4,8.031,8.031,0,0,1,15.2-9.939v.027a8.549,8.549,0,0,1-.663,3.555,4.769,4.769,0,0,1-1.935,2.2A6.006,6.006,0,0,1,9.5-3.4ZM26.011.239a5.976,5.976,0,0,0,1.822-.267A4.644,4.644,0,0,0,29.309-.8a3.847,3.847,0,0,0,1.015-1.193h.246V0h3.938V-10.274a5,5,0,0,0-.728-2.748,4.609,4.609,0,0,0-2.123-1.747,8.524,8.524,0,0,0-3.4-.6,9.215,9.215,0,0,0-3.312.547,5.542,5.542,0,0,0-2.27,1.528,4.216,4.216,0,0,0-1,2.307l-.014.13h3.691l.021-.055a1.871,1.871,0,0,1,.916-1.036,3.684,3.684,0,0,1,1.757-.366,2.9,2.9,0,0,1,1.876.53,1.847,1.847,0,0,1,.646,1.514v4.8a2.517,2.517,0,0,1-.42,1.425,2.947,2.947,0,0,1-1.148,1,3.6,3.6,0,0,1-1.651.369,2.766,2.766,0,0,1-1.7-.492,1.589,1.589,0,0,1-.66-1.347v-.027a1.54,1.54,0,0,1,.632-1.3,3.525,3.525,0,0,1,1.911-.55l5-.321V-9.153l-5.6.335a9.591,9.591,0,0,0-3.179.663,4.459,4.459,0,0,0-1.982,1.524A3.961,3.961,0,0,0,21.1-4.307v.027a4.449,4.449,0,0,0,.629,2.386,4.222,4.222,0,0,0,1.74,1.576A5.589,5.589,0,0,0,26.011.239ZM43.859.055q.581,0,1.1-.051t.892-.12V-3.083q-.287.027-.54.044t-.636.017a1.989,1.989,0,0,1-1.473-.472,2.055,2.055,0,0,1-.461-1.483v-7.068h3.11v-3.008h-3.11v-3.6H38.712v3.6H36.395v3.008h2.317v7.991a3.794,3.794,0,0,0,1.2,3.148A6.368,6.368,0,0,0,43.859.055Zm8.046.185a5.976,5.976,0,0,0,1.822-.267A4.644,4.644,0,0,0,55.2-.8a3.847,3.847,0,0,0,1.015-1.193h.246V0H60.4V-10.274a5,5,0,0,0-.728-2.748,4.609,4.609,0,0,0-2.123-1.747,8.524,8.524,0,0,0-3.4-.6,9.215,9.215,0,0,0-3.312.547,5.542,5.542,0,0,0-2.27,1.528,4.216,4.216,0,0,0-1,2.307l-.014.13h3.691l.021-.055a1.871,1.871,0,0,1,.916-1.036,3.684,3.684,0,0,1,1.757-.366,2.9,2.9,0,0,1,1.876.53,1.847,1.847,0,0,1,.646,1.514v4.8a2.517,2.517,0,0,1-.42,1.425,2.947,2.947,0,0,1-1.148,1,3.6,3.6,0,0,1-1.651.369,2.766,2.766,0,0,1-1.7-.492,1.589,1.589,0,0,1-.66-1.347v-.027a1.54,1.54,0,0,1,.632-1.3A3.525,3.525,0,0,1,53.43-6.4l5-.321V-9.153l-5.6.335a9.591,9.591,0,0,0-3.179.663,4.459,4.459,0,0,0-1.982,1.524A3.961,3.961,0,0,0,47-4.307v.027a4.449,4.449,0,0,0,.629,2.386,4.222,4.222,0,0,0,1.74,1.576A5.589,5.589,0,0,0,51.905.239ZM63.9,0H67.58V-13.426h2.03l-3.924-5.756L72.905,0H75.5l7.226-19.182-3.931,5.756h2.03V0H84.5V-19.729H79.775L74.327-5.284h-.239L68.626-19.729H63.9ZM91.793.239a5.976,5.976,0,0,0,1.822-.267A4.644,4.644,0,0,0,95.091-.8a3.847,3.847,0,0,0,1.015-1.193h.246V0h3.938V-10.274a5,5,0,0,0-.728-2.748,4.609,4.609,0,0,0-2.123-1.747,8.524,8.524,0,0,0-3.4-.6,9.215,9.215,0,0,0-3.312.547A5.542,5.542,0,0,0,88.46-13.3a4.216,4.216,0,0,0-1,2.307l-.014.13h3.691l.021-.055a1.871,1.871,0,0,1,.916-1.036,3.684,3.684,0,0,1,1.757-.366,2.9,2.9,0,0,1,1.876.53,1.847,1.847,0,0,1,.646,1.514v4.8a2.517,2.517,0,0,1-.42,1.425,2.947,2.947,0,0,1-1.148,1,3.6,3.6,0,0,1-1.651.369,2.766,2.766,0,0,1-1.7-.492,1.589,1.589,0,0,1-.66-1.347v-.027a1.54,1.54,0,0,1,.632-1.3,3.525,3.525,0,0,1,1.911-.55l5-.321V-9.153l-5.6.335a9.591,9.591,0,0,0-3.179.663,4.459,4.459,0,0,0-1.982,1.524,3.961,3.961,0,0,0-.677,2.324v.027a4.449,4.449,0,0,0,.629,2.386,4.222,4.222,0,0,0,1.74,1.576A5.589,5.589,0,0,0,91.793.239ZM103.53,0h3.992V-20.809H103.53ZM113,0h4.717l-6.357-8.921-2.974,2.393Zm-5.756-4.751,1.75-1.859,2.14-1.6,6.193-6.843h-4.532l-5.024,5.947h-.656ZM124.77.321a8.721,8.721,0,0,0,2.857-.42,6.514,6.514,0,0,0,2.023-1.09,5.74,5.74,0,0,0,1.282-1.442,5.282,5.282,0,0,0,.639-1.477l.034-.144-3.719.007-.041.082a2.336,2.336,0,0,1-.513.632,3.283,3.283,0,0,1-.991.608,3.872,3.872,0,0,1-1.49.256,3.5,3.5,0,0,1-1.863-.479,3.108,3.108,0,0,1-1.2-1.381,5.117,5.117,0,0,1-.42-2.174V-8.306a5.223,5.223,0,0,1,.427-2.225,3.181,3.181,0,0,1,1.172-1.384,3.127,3.127,0,0,1,1.709-.472,3.14,3.14,0,0,1,1.7.458,3.046,3.046,0,0,1,1.145,1.364,5.439,5.439,0,0,1,.414,2.259v1.593l1.873-2.365H119.4v2.5h12.325V-7.813a8.669,8.669,0,0,0-.865-3.982,6.31,6.31,0,0,0-2.464-2.639,7.356,7.356,0,0,0-3.794-.94,7.283,7.283,0,0,0-3.811.967,6.5,6.5,0,0,0-2.5,2.731,9.176,9.176,0,0,0-.885,4.163V-7.5a9.114,9.114,0,0,0,.889,4.167,6.367,6.367,0,0,0,2.536,2.7A7.751,7.751,0,0,0,124.77.321Zm9.3-.321h3.992V-8.422a3.546,3.546,0,0,1,.451-1.832,3,3,0,0,1,1.282-1.179,4.362,4.362,0,0,1,1.965-.414,7.38,7.38,0,0,1,.93.058,7.967,7.967,0,0,1,.9.167V-15.1a4.329,4.329,0,0,0-.687-.14,6.2,6.2,0,0,0-.8-.051,4.219,4.219,0,0,0-2.447.677,3.4,3.4,0,0,0-1.347,1.907h-.246v-2.345h-3.992Z" transform="translate(373 2126)" fill="#212936"/>
    <g id="Group_7" data-name="Group 7">
      <path id="Path_35" data-name="Path 35" d="M28,0A28,28,0,1,1,0,28,28,28,0,0,1,28,0Z" transform="translate(313 2088)" fill="#9385de"/>
    </g>
    <path id="Path_63" data-name="Path 63" d="M13.4,23.575a1.35,1.35,0,1,0,1.35,1.35A1.354,1.354,0,0,0,13.4,23.575ZM18.8,4C13.4,4,8,5.85,8,9.4V25.6c0,3.55,5.4,5.4,10.8,5.4s10.8-1.85,10.8-5.4V9.4C29.6,5.85,24.2,4,18.8,4Zm8.1,21.6c0,.958-3.078,2.7-8.1,2.7s-8.1-1.742-8.1-2.7V21.186A17.767,17.767,0,0,0,18.8,22.9a17.767,17.767,0,0,0,8.1-1.715Zm0-8.1c0,.958-3.078,2.7-8.1,2.7s-8.1-1.742-8.1-2.7V13.085A17.767,17.767,0,0,0,18.8,14.8a17.767,17.767,0,0,0,8.1-1.715Zm-8.1-5.4c-5.022,0-8.1-1.741-8.1-2.7s3.078-2.7,8.1-2.7,8.1,1.741,8.1,2.7S23.822,12.1,18.8,12.1Zm-5.4,3.375a1.35,1.35,0,1,0,1.35,1.35A1.354,1.354,0,0,0,13.4,15.475Z" transform="translate(322.2 2098.5)" fill="#fff"/>
  </g>
</svg>
