<svg xmlns="http://www.w3.org/2000/svg" width="203" height="56" viewBox="0 0 203 56">
  <g id="Group_13" data-name="Group 13" transform="translate(-313 -2088)">
    <text id="DataMaker" transform="translate(373 2126)" fill="#212936" font-size="28" font-family="'\.AppleSystemUIFont'" font-weight="700"><tspan x="0" y="0">DataMaker</tspan></text>
    <g id="Group_7" data-name="Group 7">
      <path id="Path_35" data-name="Path 35" d="M28,0A28,28,0,1,1,0,28,28,28,0,0,1,28,0Z" transform="translate(313 2088)" fill="#9385de"/>
    </g>
    <path id="Path_63" data-name="Path 63" d="M13.4,23.575a1.35,1.35,0,1,0,1.35,1.35A1.354,1.354,0,0,0,13.4,23.575ZM18.8,4C13.4,4,8,5.85,8,9.4V25.6c0,3.55,5.4,5.4,10.8,5.4s10.8-1.85,10.8-5.4V9.4C29.6,5.85,24.2,4,18.8,4Zm8.1,21.6c0,.958-3.078,2.7-8.1,2.7s-8.1-1.742-8.1-2.7V21.186A17.767,17.767,0,0,0,18.8,22.9a17.767,17.767,0,0,0,8.1-1.715Zm0-8.1c0,.958-3.078,2.7-8.1,2.7s-8.1-1.742-8.1-2.7V13.085A17.767,17.767,0,0,0,18.8,14.8a17.767,17.767,0,0,0,8.1-1.715Zm-8.1-5.4c-5.022,0-8.1-1.741-8.1-2.7s3.078-2.7,8.1-2.7,8.1,1.741,8.1,2.7S23.822,12.1,18.8,12.1Zm-5.4,3.375a1.35,1.35,0,1,0,1.35,1.35A1.354,1.354,0,0,0,13.4,15.475Z" transform="translate(322.2 2098.5)" fill="#fff"/>
  </g>
</svg>
