<svg xmlns="http://www.w3.org/2000/svg" width="225" height="60" viewBox="0 0 225 60">
  <g id="Group_45" data-name="Group 45" transform="translate(-836 -685)">
    <g id="Rectangle_105" data-name="Rectangle 105" transform="translate(836 685)" fill="#fff" stroke="#212936" stroke-width="2" stroke-dasharray="10 5" opacity="0.6">
      <rect width="225" height="60" rx="15" stroke="none"/>
      <rect x="1" y="1" width="223" height="58" rx="14" fill="none"/>
    </g>
    <text id="Deploy" transform="translate(928.129 724.865)" fill="#212936" font-size="25" font-family="'\.AppleSystemUIFont'" font-weight="700"><tspan x="0" y="0">Deploy</tspan></text>
    <g id="Icon_ionic-ios-rocket" data-name="Icon ionic-ios-rocket" transform="translate(883.505 699.259)">
      <path id="Path_13" data-name="Path 13" d="M32.47,3.769a.31.31,0,0,0-.232-.239c-3.825-.935-12.663,2.4-17.452,7.186a20.7,20.7,0,0,0-2.327,2.749,8.66,8.66,0,0,0-4.212.527c-3.551,1.561-4.584,5.639-4.873,7.39a.63.63,0,0,0,.689.731l5.7-.626a12.677,12.677,0,0,0,.077,1.287,1.276,1.276,0,0,0,.373.78l2.208,2.208a1.276,1.276,0,0,0,.78.373,12.652,12.652,0,0,0,1.28.077l-.626,5.7a.63.63,0,0,0,.731.689c1.751-.281,5.836-1.315,7.39-4.866a8.7,8.7,0,0,0,.534-4.2,20.73,20.73,0,0,0,2.756-2.327C30.08,16.425,33.391,7.784,32.47,3.769ZM21,15.012a3,3,0,1,1,4.247,0A3,3,0,0,1,21,15.012Z" fill="#212936"/>
      <path id="Path_14" data-name="Path 14" d="M12.27,26.754h0a2.667,2.667,0,0,1-1.392.563,1.893,1.893,0,0,1-2.18-2.18,2.615,2.615,0,0,1,.555-1.385l.007-.007a.235.235,0,0,0-.2-.4,3.232,3.232,0,0,0-1.891.921c-1.266,1.266-1.385,5.962-1.385,5.962s4.7-.12,5.97-1.385a3.211,3.211,0,0,0,.921-1.891A.241.241,0,0,0,12.27,26.754Z" fill="#212936"/>
    </g>
  </g>
</svg>
