<svg xmlns="http://www.w3.org/2000/svg" width="225" height="60" viewBox="0 0 225 60">
  <g id="Group_45" data-name="Group 45" transform="translate(-836 -685)">
    <g id="Rectangle_105" data-name="Rectangle 105" transform="translate(836 685)" fill="#fff" stroke="#212936" stroke-width="2" stroke-dasharray="10 5" opacity="0.6">
      <rect width="225" height="60" rx="15" stroke="none"/>
      <rect x="1" y="1" width="223" height="58" rx="14" fill="none"/>
    </g>
    <path id="Path_93" data-name="Path 93" d="M2.136,0H9.064A9,9,0,0,0,13.55-1.041,6.791,6.791,0,0,0,16.36-4.074a11,11,0,0,0,.967-4.837v-.024a10.391,10.391,0,0,0-.974-4.7,6.751,6.751,0,0,0-2.82-2.96,9.127,9.127,0,0,0-4.471-1.019H2.136ZM5.823-3.04V-14.575H8.484a5.315,5.315,0,0,1,2.737.668,4.343,4.343,0,0,1,1.743,1.944,7.17,7.17,0,0,1,.6,3.088v.024a7.633,7.633,0,0,1-.592,3.174,4.258,4.258,0,0,1-1.727,1.968,5.362,5.362,0,0,1-2.765.668ZM25.485.287a7.786,7.786,0,0,0,2.551-.375,5.816,5.816,0,0,0,1.807-.974A5.125,5.125,0,0,0,30.987-2.35a4.716,4.716,0,0,0,.571-1.318l.031-.128-3.32.006-.037.073a2.086,2.086,0,0,1-.458.565,2.932,2.932,0,0,1-.885.543,3.457,3.457,0,0,1-1.331.229,3.127,3.127,0,0,1-1.663-.427,2.775,2.775,0,0,1-1.074-1.233,4.568,4.568,0,0,1-.375-1.941V-7.416A4.664,4.664,0,0,1,22.827-9.4a2.84,2.84,0,0,1,1.047-1.236A2.792,2.792,0,0,1,25.4-11.06a2.8,2.8,0,0,1,1.52.409,2.72,2.72,0,0,1,1.022,1.218,4.856,4.856,0,0,1,.369,2.017v1.422l1.672-2.112h-9.29v2.234h11v-1.1a7.74,7.74,0,0,0-.772-3.555,5.634,5.634,0,0,0-2.2-2.356,6.568,6.568,0,0,0-3.387-.839,6.5,6.5,0,0,0-3.4.864A5.8,5.8,0,0,0,19.7-10.425a8.193,8.193,0,0,0-.79,3.717V-6.7a8.138,8.138,0,0,0,.793,3.72A5.685,5.685,0,0,0,21.969-.562,6.921,6.921,0,0,0,25.485.287Zm8.256,4.169h3.564v-6.6h.22a3.852,3.852,0,0,0,.934,1.26,4.219,4.219,0,0,0,1.379.815,4.956,4.956,0,0,0,1.709.287,5.074,5.074,0,0,0,2.924-.83A5.271,5.271,0,0,0,46.348-3,9.493,9.493,0,0,0,47-6.708v-.024a9.32,9.32,0,0,0-.665-3.7,5.392,5.392,0,0,0-1.886-2.386,5,5,0,0,0-2.905-.839,5.206,5.206,0,0,0-1.73.275,4.087,4.087,0,0,0-1.364.784,3.823,3.823,0,0,0-.928,1.236h-.22V-13.44H33.741Zm6.592-7.2a2.774,2.774,0,0,1-1.624-.479,3.062,3.062,0,0,1-1.065-1.373,5.459,5.459,0,0,1-.375-2.121v-.024a5.465,5.465,0,0,1,.372-2.124A3.029,3.029,0,0,1,38.7-10.223a2.8,2.8,0,0,1,1.63-.476,2.765,2.765,0,0,1,1.627.476,3.033,3.033,0,0,1,1.05,1.364,5.528,5.528,0,0,1,.369,2.127v.024a5.516,5.516,0,0,1-.369,2.118,3.051,3.051,0,0,1-1.05,1.37A2.753,2.753,0,0,1,40.333-2.74ZM49.012,0h3.564V-18.579H49.012Zm12.21.287A7.115,7.115,0,0,0,64.78-.552,5.6,5.6,0,0,0,67.056-2.96a8.23,8.23,0,0,0,.793-3.754v-.024a8.1,8.1,0,0,0-.8-3.738,5.682,5.682,0,0,0-2.286-2.408,7.055,7.055,0,0,0-3.54-.842,7.026,7.026,0,0,0-3.531.845A5.715,5.715,0,0,0,55.4-10.471a8.063,8.063,0,0,0-.806,3.732v.024a8.2,8.2,0,0,0,.8,3.754A5.616,5.616,0,0,0,57.672-.552,7.106,7.106,0,0,0,61.222.287Zm0-2.8a2.614,2.614,0,0,1-1.611-.5,3.082,3.082,0,0,1-1.016-1.437,6.49,6.49,0,0,1-.351-2.264v-.024A6.393,6.393,0,0,1,58.6-8.987a3.142,3.142,0,0,1,1.019-1.44,2.583,2.583,0,0,1,1.605-.5,2.58,2.58,0,0,1,1.608.5,3.152,3.152,0,0,1,1.016,1.44A6.393,6.393,0,0,1,64.2-6.732v.024a6.469,6.469,0,0,1-.351,2.258,3.112,3.112,0,0,1-1.013,1.44A2.6,2.6,0,0,1,61.222-2.509ZM71,4.736a8.09,8.09,0,0,0,2.844-.446A4.632,4.632,0,0,0,75.859,2.8,9.243,9.243,0,0,0,77.287-.012L81.864-13.44H78.1l-3.21,11.6.781-1.416H74.613l.818,1.416-3.217-11.6H68.3L73.02.006,72.9.519a1.822,1.822,0,0,1-.745,1.157,2.689,2.689,0,0,1-1.514.375q-.244,0-.491-.006t-.436-.024V4.7q.317.018.647.027T71,4.736Z" transform="translate(928.129 724.865)" fill="#212936"/>
    <g id="Icon_ionic-ios-rocket" data-name="Icon ionic-ios-rocket" transform="translate(883.505 699.259)">
      <path id="Path_13" data-name="Path 13" d="M32.47,3.769a.31.31,0,0,0-.232-.239c-3.825-.935-12.663,2.4-17.452,7.186a20.7,20.7,0,0,0-2.327,2.749,8.66,8.66,0,0,0-4.212.527c-3.551,1.561-4.584,5.639-4.873,7.39a.63.63,0,0,0,.689.731l5.7-.626a12.677,12.677,0,0,0,.077,1.287,1.276,1.276,0,0,0,.373.78l2.208,2.208a1.276,1.276,0,0,0,.78.373,12.652,12.652,0,0,0,1.28.077l-.626,5.7a.63.63,0,0,0,.731.689c1.751-.281,5.836-1.315,7.39-4.866a8.7,8.7,0,0,0,.534-4.2,20.73,20.73,0,0,0,2.756-2.327C30.08,16.425,33.391,7.784,32.47,3.769ZM21,15.012a3,3,0,1,1,4.247,0A3,3,0,0,1,21,15.012Z" fill="#212936"/>
      <path id="Path_14" data-name="Path 14" d="M12.27,26.754h0a2.667,2.667,0,0,1-1.392.563,1.893,1.893,0,0,1-2.18-2.18,2.615,2.615,0,0,1,.555-1.385l.007-.007a.235.235,0,0,0-.2-.4,3.232,3.232,0,0,0-1.891.921c-1.266,1.266-1.385,5.962-1.385,5.962s4.7-.12,5.97-1.385a3.211,3.211,0,0,0,.921-1.891A.241.241,0,0,0,12.27,26.754Z" fill="#212936"/>
    </g>
  </g>
</svg>
