<svg xmlns="http://www.w3.org/2000/svg" width="225" height="60" viewBox="0 0 225 60">
  <g id="Group_56" data-name="Group 56" transform="translate(-1093 -685)">
    <g id="Rectangle_106" data-name="Rectangle 106" transform="translate(1093 685)" fill="#fff" stroke="#212936" stroke-width="2" stroke-dasharray="10 5" opacity="0.6">
      <rect width="225" height="60" rx="15" stroke="none"/>
      <rect x="1" y="1" width="223" height="58" rx="14" fill="none"/>
    </g>
    <path id="Path_94" data-name="Path 94" d="M2.136,0H5.42V-11.987H7.233l-3.5-5.139L10.175,0h2.313l6.451-17.126-3.51,5.139h1.813V0h3.284V-17.615H16.309l-4.865,12.9H11.23l-4.877-12.9H2.136ZM29.562.287A7.115,7.115,0,0,0,33.12-.552,5.6,5.6,0,0,0,35.4-2.96a8.23,8.23,0,0,0,.793-3.754v-.024a8.1,8.1,0,0,0-.8-3.738A5.682,5.682,0,0,0,33.1-12.885a7.055,7.055,0,0,0-3.54-.842,7.026,7.026,0,0,0-3.531.845,5.715,5.715,0,0,0-2.292,2.411,8.063,8.063,0,0,0-.806,3.732v.024a8.2,8.2,0,0,0,.8,3.754A5.616,5.616,0,0,0,26.012-.552,7.106,7.106,0,0,0,29.562.287Zm0-2.8a2.614,2.614,0,0,1-1.611-.5,3.082,3.082,0,0,1-1.016-1.437,6.49,6.49,0,0,1-.351-2.264v-.024a6.393,6.393,0,0,1,.354-2.255,3.142,3.142,0,0,1,1.019-1.44,2.583,2.583,0,0,1,1.605-.5,2.58,2.58,0,0,1,1.608.5,3.152,3.152,0,0,1,1.016,1.44,6.393,6.393,0,0,1,.354,2.255v.024a6.469,6.469,0,0,1-.351,2.258,3.112,3.112,0,0,1-1.013,1.44A2.6,2.6,0,0,1,29.562-2.509ZM38.211,0h3.564V-7.77a3.651,3.651,0,0,1,.32-1.587,2.444,2.444,0,0,1,.912-1.044,2.605,2.605,0,0,1,1.416-.372,2.264,2.264,0,0,1,1.862.732,3.352,3.352,0,0,1,.6,2.161V0h3.564V-8.691a5.4,5.4,0,0,0-1.175-3.723,4.354,4.354,0,0,0-3.421-1.312,4.345,4.345,0,0,0-2.417.635A3.768,3.768,0,0,0,42-11.365h-.22V-13.44H38.211ZM52.943,0h3.564V-13.44H52.943Zm1.788-15.5a1.95,1.95,0,0,0,1.419-.58,1.89,1.89,0,0,0,.589-1.4,1.894,1.894,0,0,0-.589-1.407,1.955,1.955,0,0,0-1.419-.577,1.961,1.961,0,0,0-1.413.577,1.885,1.885,0,0,0-.6,1.407,1.881,1.881,0,0,0,.6,1.4A1.956,1.956,0,0,0,54.731-15.5ZM64.808.049q.519,0,.986-.046t.8-.107V-2.753q-.256.024-.482.04T65.54-2.7a1.776,1.776,0,0,1-1.315-.421,1.835,1.835,0,0,1-.412-1.324v-6.311H66.59V-13.44H63.813v-3.21h-3.6v3.21H58.143v2.686h2.069v7.135A3.388,3.388,0,0,0,61.286-.809,5.686,5.686,0,0,0,64.808.049Zm9.424.238A7.115,7.115,0,0,0,77.79-.552,5.6,5.6,0,0,0,80.067-2.96a8.23,8.23,0,0,0,.793-3.754v-.024a8.1,8.1,0,0,0-.8-3.738,5.682,5.682,0,0,0-2.286-2.408,7.055,7.055,0,0,0-3.54-.842,7.026,7.026,0,0,0-3.531.845,5.715,5.715,0,0,0-2.292,2.411A8.063,8.063,0,0,0,67.6-6.738v.024a8.2,8.2,0,0,0,.8,3.754A5.616,5.616,0,0,0,70.683-.552,7.106,7.106,0,0,0,74.232.287Zm0-2.8a2.614,2.614,0,0,1-1.611-.5A3.082,3.082,0,0,1,71.6-4.443a6.489,6.489,0,0,1-.351-2.264v-.024a6.393,6.393,0,0,1,.354-2.255,3.142,3.142,0,0,1,1.019-1.44,2.583,2.583,0,0,1,1.605-.5,2.58,2.58,0,0,1,1.608.5,3.152,3.152,0,0,1,1.016,1.44,6.393,6.393,0,0,1,.354,2.255v.024a6.469,6.469,0,0,1-.351,2.258,3.112,3.112,0,0,1-1.013,1.44A2.6,2.6,0,0,1,74.232-2.509ZM82.882,0h3.564V-7.52a3.166,3.166,0,0,1,.4-1.636,2.682,2.682,0,0,1,1.144-1.053,3.9,3.9,0,0,1,1.755-.369,6.589,6.589,0,0,1,.83.052,7.114,7.114,0,0,1,.806.15v-3.107a3.865,3.865,0,0,0-.613-.125,5.54,5.54,0,0,0-.717-.046,3.767,3.767,0,0,0-2.185.6,3.032,3.032,0,0,0-1.2,1.7h-.22V-13.44H82.882Z" transform="translate(1178 725.631)" fill="#212936"/>
    <path id="Icon_awesome-stethoscope" data-name="Icon awesome-stethoscope" d="M26.2,6.563a3.749,3.749,0,0,0-1.816,7v6.6a6.349,6.349,0,0,1-6.562,6.094,6.378,6.378,0,0,1-6.557-5.812A9.4,9.4,0,0,0,18.75,11.25V2.145A1.405,1.405,0,0,0,17.619.768L13.934.03a1.4,1.4,0,0,0-1.652,1.1l-.187.92A1.4,1.4,0,0,0,13.2,3.7l1.8.357v7.113a5.625,5.625,0,1,1-11.25.07V4.067l1.8-.357a1.4,1.4,0,0,0,1.1-1.652l-.182-.92A1.4,1.4,0,0,0,4.811.035L1.131.762A1.412,1.412,0,0,0,0,2.145V11.25a9.389,9.389,0,0,0,7.506,9.188A10.11,10.11,0,0,0,17.813,30a10.1,10.1,0,0,0,10.313-9.844v-6.6a3.749,3.749,0,0,0-1.928-7Zm.053,4.687a.938.938,0,1,1,.938-.937A.94.94,0,0,1,26.25,11.25Z" transform="translate(1142 701.13)" fill="#212936"/>
  </g>
</svg>
