<svg xmlns="http://www.w3.org/2000/svg" width="225" height="60" viewBox="0 0 225 60">
  <g id="Group_54" data-name="Group 54" transform="translate(-310 -685)">
    <g id="Rectangle_99" data-name="Rectangle 99" transform="translate(310 685)" fill="#fff" stroke="#212936" stroke-width="2" stroke-dasharray="10 5" opacity="0.6">
      <rect width="225" height="60" rx="15" stroke="none"/>
      <rect x="1" y="1" width="223" height="58" rx="14" fill="none"/>
    </g>
    <g id="Group_43" data-name="Group 43">
      <path id="Path_91" data-name="Path 91" d="M2.136,0H13.66V-3.04H5.823V-17.615H2.136ZM19.329.214a5.336,5.336,0,0,0,1.627-.238,4.146,4.146,0,0,0,1.318-.687,3.434,3.434,0,0,0,.906-1.065h.22V0h3.516V-9.174a4.468,4.468,0,0,0-.65-2.454,4.116,4.116,0,0,0-1.9-1.559,7.611,7.611,0,0,0-3.033-.54,8.228,8.228,0,0,0-2.957.488,4.949,4.949,0,0,0-2.026,1.364,3.764,3.764,0,0,0-.894,2.06l-.012.116h3.3l.018-.049a1.671,1.671,0,0,1,.818-.925A3.289,3.289,0,0,1,21.148-11a2.585,2.585,0,0,1,1.675.473A1.649,1.649,0,0,1,23.4-9.174v4.285a2.247,2.247,0,0,1-.375,1.273A2.632,2.632,0,0,1,22-2.722a3.214,3.214,0,0,1-1.474.33,2.47,2.47,0,0,1-1.517-.439,1.419,1.419,0,0,1-.589-1.2v-.024a1.375,1.375,0,0,1,.565-1.163,3.148,3.148,0,0,1,1.706-.491L25.158-6V-8.173l-5,.3a8.564,8.564,0,0,0-2.838.592,3.981,3.981,0,0,0-1.77,1.361,3.537,3.537,0,0,0-.6,2.075v.024a3.972,3.972,0,0,0,.562,2.13A3.77,3.77,0,0,0,17.062-.284,4.99,4.99,0,0,0,19.329.214Zm18.223,0a5.015,5.015,0,0,0,2.905-.836,5.367,5.367,0,0,0,1.886-2.39,9.348,9.348,0,0,0,.665-3.7v-.024a9.493,9.493,0,0,0-.656-3.711,5.271,5.271,0,0,0-1.877-2.38,5.074,5.074,0,0,0-2.924-.83,4.956,4.956,0,0,0-1.709.287,4.248,4.248,0,0,0-1.379.812,3.8,3.8,0,0,0-.934,1.263h-.22v-7.288H29.746V0h3.564V-2.081h.22a3.877,3.877,0,0,0,.928,1.233,4.06,4.06,0,0,0,1.364.787A5.206,5.206,0,0,0,37.553.214ZM36.338-2.74a2.8,2.8,0,0,1-1.63-.476,3.025,3.025,0,0,1-1.062-1.367A5.475,5.475,0,0,1,33.274-6.7v-.024a5.448,5.448,0,0,1,.375-2.127,3.066,3.066,0,0,1,1.065-1.367,2.774,2.774,0,0,1,1.624-.479,2.753,2.753,0,0,1,1.627.479,3.053,3.053,0,0,1,1.05,1.367,5.51,5.51,0,0,1,.369,2.121v.024a5.533,5.533,0,0,1-.369,2.124,3.031,3.031,0,0,1-1.05,1.367A2.765,2.765,0,0,1,36.338-2.74ZM50.77.287a7.786,7.786,0,0,0,2.551-.375,5.816,5.816,0,0,0,1.807-.974A5.125,5.125,0,0,0,56.272-2.35a4.716,4.716,0,0,0,.571-1.318l.031-.128-3.32.006-.037.073a2.086,2.086,0,0,1-.458.565,2.932,2.932,0,0,1-.885.543,3.457,3.457,0,0,1-1.331.229,3.127,3.127,0,0,1-1.663-.427,2.775,2.775,0,0,1-1.074-1.233,4.568,4.568,0,0,1-.375-1.941V-7.416A4.664,4.664,0,0,1,48.112-9.4a2.84,2.84,0,0,1,1.047-1.236,2.792,2.792,0,0,1,1.526-.421,2.8,2.8,0,0,1,1.52.409,2.72,2.72,0,0,1,1.022,1.218A4.856,4.856,0,0,1,53.6-7.416v1.422l1.672-2.112h-9.29v2.234h11v-1.1a7.74,7.74,0,0,0-.772-3.555,5.634,5.634,0,0,0-2.2-2.356,6.568,6.568,0,0,0-3.387-.839,6.5,6.5,0,0,0-3.4.864,5.8,5.8,0,0,0-2.234,2.438,8.193,8.193,0,0,0-.79,3.717V-6.7a8.138,8.138,0,0,0,.793,3.72A5.685,5.685,0,0,0,47.254-.562,6.921,6.921,0,0,0,50.77.287ZM59.148,0h3.564V-18.579H59.148Z" transform="translate(398 723)" fill="#212936"/>
      <path id="Icon_material-label-outline" data-name="Icon material-label-outline" d="M26.445,8.76A2.991,2.991,0,0,0,24,7.5L7.5,7.515a3,3,0,0,0-3,2.985v15a3,3,0,0,0,3,2.985L24,28.5a2.991,2.991,0,0,0,2.445-1.26L33,18ZM24,25.5H7.5v-15H24L29.325,18Z" transform="translate(358.25 696.5)" fill="#212936"/>
    </g>
  </g>
</svg>
