<svg xmlns="http://www.w3.org/2000/svg" width="225" height="60" viewBox="0 0 225 60">
  <g id="Group_41" data-name="Group 41" transform="translate(-310 -685)">
    <g id="Rectangle_99" data-name="Rectangle 99" transform="translate(310 685)" fill="#fff" stroke="#212936" stroke-width="2" stroke-dasharray="10 5" opacity="0.6">
      <rect width="225" height="60" rx="15" stroke="none"/>
      <rect x="1" y="1" width="223" height="58" rx="14" fill="none"/>
    </g>
    <text id="Label" transform="translate(398 723)" fill="#212936" font-size="25" font-family="'\.AppleSystemUIFont'" font-weight="700"><tspan x="0" y="0">Label</tspan></text>
    <path id="Icon_material-label-outline" data-name="Icon material-label-outline" d="M26.445,8.76A2.991,2.991,0,0,0,24,7.5L7.5,7.515a3,3,0,0,0-3,2.985v15a3,3,0,0,0,3,2.985L24,28.5a2.991,2.991,0,0,0,2.445-1.26L33,18ZM24,25.5H7.5v-15H24L29.325,18Z" transform="translate(358.25 696.5)" fill="#212936"/>
  </g>
</svg>
