<svg xmlns="http://www.w3.org/2000/svg" width="223.14" height="56" viewBox="0 0 223.14 56">
  <g id="Group_14" data-name="Group 14" transform="translate(-591 -2088)">
    <path id="Path_86" data-name="Path 86" d="M2.393,0H6.07V-13.426H8.1L4.177-19.182,11.4,0h2.591l7.226-19.182-3.931,5.756h2.03V0h3.678V-19.729H18.266L12.817-5.284h-.239L7.116-19.729H2.393ZM33.168.321a7.969,7.969,0,0,0,3.985-.94,6.275,6.275,0,0,0,2.55-2.7,9.218,9.218,0,0,0,.889-4.2v-.027a9.076,9.076,0,0,0-.9-4.187,6.364,6.364,0,0,0-2.56-2.7,7.9,7.9,0,0,0-3.965-.943,7.869,7.869,0,0,0-3.955.947,6.4,6.4,0,0,0-2.567,2.7,9.031,9.031,0,0,0-.9,4.18v.027a9.188,9.188,0,0,0,.892,4.2,6.29,6.29,0,0,0,2.557,2.7A7.959,7.959,0,0,0,33.168.321Zm0-3.131a2.928,2.928,0,0,1-1.8-.557,3.452,3.452,0,0,1-1.138-1.61,7.268,7.268,0,0,1-.393-2.536V-7.54a7.16,7.16,0,0,1,.4-2.526,3.519,3.519,0,0,1,1.142-1.613,2.893,2.893,0,0,1,1.8-.564,2.889,2.889,0,0,1,1.8.564,3.531,3.531,0,0,1,1.138,1.613,7.16,7.16,0,0,1,.4,2.526v.027a7.246,7.246,0,0,1-.393,2.529A3.485,3.485,0,0,1,34.976-3.37,2.912,2.912,0,0,1,33.168-2.81ZM48.275.239a5.822,5.822,0,0,0,1.941-.308A4.553,4.553,0,0,0,51.741-.95,4.342,4.342,0,0,0,52.78-2.331h.246V0h3.992V-20.809H53.026v8.162H52.78a4.157,4.157,0,0,0-1.042-1.415,4.8,4.8,0,0,0-1.548-.909,5.551,5.551,0,0,0-1.914-.321,5.683,5.683,0,0,0-3.274.93A5.9,5.9,0,0,0,42.9-11.7a10.632,10.632,0,0,0-.735,4.156v.027a10.47,10.47,0,0,0,.745,4.139A5.993,5.993,0,0,0,45.028-.7,5.625,5.625,0,0,0,48.275.239Zm1.36-3.309A3.1,3.1,0,0,1,47.817-3.6a3.385,3.385,0,0,1-1.179-1.531,6.2,6.2,0,0,1-.414-2.379V-7.54a6.171,6.171,0,0,1,.414-2.375,3.4,3.4,0,0,1,1.183-1.531,3.091,3.091,0,0,1,1.815-.537,3.1,3.1,0,0,1,1.822.537,3.444,3.444,0,0,1,1.189,1.531,6.1,6.1,0,0,1,.42,2.382v.027a6.132,6.132,0,0,1-.417,2.372A3.4,3.4,0,0,1,51.464-3.6,3.129,3.129,0,0,1,49.636-3.069ZM66.582.321A8.721,8.721,0,0,0,69.439-.1a6.514,6.514,0,0,0,2.023-1.09,5.74,5.74,0,0,0,1.282-1.442,5.282,5.282,0,0,0,.639-1.477l.034-.144L69.7-4.245l-.041.082a2.336,2.336,0,0,1-.513.632,3.283,3.283,0,0,1-.991.608,3.872,3.872,0,0,1-1.49.256A3.5,3.5,0,0,1,64.8-3.145a3.108,3.108,0,0,1-1.2-1.381,5.117,5.117,0,0,1-.42-2.174V-8.306a5.223,5.223,0,0,1,.427-2.225,3.181,3.181,0,0,1,1.172-1.384,3.127,3.127,0,0,1,1.709-.472,3.14,3.14,0,0,1,1.7.458,3.046,3.046,0,0,1,1.145,1.364,5.439,5.439,0,0,1,.414,2.259v1.593L71.62-9.078h-10.4v2.5H73.541V-7.813a8.669,8.669,0,0,0-.865-3.982,6.31,6.31,0,0,0-2.464-2.639,7.356,7.356,0,0,0-3.794-.94,7.283,7.283,0,0,0-3.811.967,6.5,6.5,0,0,0-2.5,2.731,9.176,9.176,0,0,0-.885,4.163V-7.5a9.114,9.114,0,0,0,.889,4.167,6.367,6.367,0,0,0,2.536,2.7A7.751,7.751,0,0,0,66.582.321ZM76.022,0h3.992V-20.809H76.022Zm7.424,0h3.678V-13.426h2.03L85.23-19.182,92.449,0H95.04l7.226-19.182-3.931,5.756h2.03V0h3.678V-19.729H99.319L93.871-5.284h-.239L88.17-19.729H83.446Zm27.891.239a5.976,5.976,0,0,0,1.822-.267A4.644,4.644,0,0,0,114.635-.8a3.847,3.847,0,0,0,1.015-1.193h.246V0h3.938V-10.274a5,5,0,0,0-.728-2.748,4.609,4.609,0,0,0-2.123-1.747,8.524,8.524,0,0,0-3.4-.6,9.215,9.215,0,0,0-3.312.547A5.542,5.542,0,0,0,108-13.3a4.216,4.216,0,0,0-1,2.307l-.014.13h3.691l.021-.055a1.871,1.871,0,0,1,.916-1.036,3.684,3.684,0,0,1,1.757-.366,2.9,2.9,0,0,1,1.876.53,1.847,1.847,0,0,1,.646,1.514v4.8a2.517,2.517,0,0,1-.42,1.425,2.947,2.947,0,0,1-1.148,1,3.6,3.6,0,0,1-1.651.369,2.766,2.766,0,0,1-1.7-.492,1.589,1.589,0,0,1-.66-1.347v-.027a1.54,1.54,0,0,1,.632-1.3,3.525,3.525,0,0,1,1.911-.55l5-.321V-9.153l-5.6.335a9.591,9.591,0,0,0-3.179.663,4.459,4.459,0,0,0-1.982,1.524,3.961,3.961,0,0,0-.677,2.324v.027a4.449,4.449,0,0,0,.629,2.386A4.222,4.222,0,0,0,108.8-.318,5.589,5.589,0,0,0,111.337.239ZM123.074,0h3.992V-20.809h-3.992Zm9.468,0h4.717L130.9-8.921l-2.974,2.393Zm-5.756-4.751,1.75-1.859,2.14-1.6,6.193-6.843h-4.532l-5.024,5.947h-.656ZM144.313.321a8.721,8.721,0,0,0,2.857-.42,6.514,6.514,0,0,0,2.023-1.09,5.74,5.74,0,0,0,1.282-1.442,5.282,5.282,0,0,0,.639-1.477l.034-.144-3.719.007-.041.082a2.336,2.336,0,0,1-.513.632,3.283,3.283,0,0,1-.991.608,3.872,3.872,0,0,1-1.49.256,3.5,3.5,0,0,1-1.863-.479,3.108,3.108,0,0,1-1.2-1.381,5.117,5.117,0,0,1-.42-2.174V-8.306a5.223,5.223,0,0,1,.427-2.225,3.181,3.181,0,0,1,1.172-1.384,3.127,3.127,0,0,1,1.709-.472,3.14,3.14,0,0,1,1.7.458,3.046,3.046,0,0,1,1.145,1.364,5.439,5.439,0,0,1,.414,2.259v1.593l1.873-2.365h-10.4v2.5h12.325V-7.813a8.669,8.669,0,0,0-.865-3.982,6.31,6.31,0,0,0-2.464-2.639,7.356,7.356,0,0,0-3.794-.94,7.283,7.283,0,0,0-3.811.967,6.5,6.5,0,0,0-2.5,2.731,9.176,9.176,0,0,0-.885,4.163V-7.5a9.114,9.114,0,0,0,.889,4.167,6.367,6.367,0,0,0,2.536,2.7A7.751,7.751,0,0,0,144.313.321Zm9.3-.321h3.992V-8.422a3.546,3.546,0,0,1,.451-1.832,3,3,0,0,1,1.282-1.179,4.362,4.362,0,0,1,1.965-.414,7.38,7.38,0,0,1,.93.058,7.967,7.967,0,0,1,.9.167V-15.1a4.329,4.329,0,0,0-.687-.14,6.2,6.2,0,0,0-.8-.051,4.219,4.219,0,0,0-2.447.677,3.4,3.4,0,0,0-1.347,1.907h-.246v-2.345h-3.992Z" transform="translate(651 2127)" fill="#212936"/>
    <g id="Group_8" data-name="Group 8">
      <circle id="Ellipse_27" data-name="Ellipse 27" cx="28" cy="28" r="28" transform="translate(591 2088)" fill="#edb85e"/>
      <path id="Icon_ionic-ios-flask" data-name="Icon ionic-ios-flask" d="M26.936,21.788,19.922,10.1a.222.222,0,0,1-.036-.126V5.3a.241.241,0,0,1,.24-.24.723.723,0,0,0,.721-.721V4.1a.723.723,0,0,0-.721-.721H11.936a.723.723,0,0,0-.721.721v.24a.723.723,0,0,0,.721.721.241.241,0,0,1,.24.24V9.98a.217.217,0,0,1-.036.12L5.2,21.788a5.579,5.579,0,0,0-.727,2.74A3.865,3.865,0,0,0,8.39,28.375H23.811a3.761,3.761,0,0,0,3.8-3.846A5.563,5.563,0,0,0,26.936,21.788ZM10.373,17.8a.482.482,0,0,1-.415-.727l3.636-6.112a1.938,1.938,0,0,0,.27-.98V5.3c0-.084-.006-.162-.012-.24h4.369a1.571,1.571,0,0,0-.012.24V9.98a1.891,1.891,0,0,0,.276.986l3.63,6.106a.482.482,0,0,1-.415.727Z" transform="translate(602.96 2100.125)" fill="#fff"/>
    </g>
  </g>
</svg>
