<svg xmlns="http://www.w3.org/2000/svg" width="225" height="60" viewBox="0 0 225 60">
  <g id="Group_53" data-name="Group 53" transform="translate(-55 -685)">
    <g id="Rectangle_80" data-name="Rectangle 80" transform="translate(55 685)" fill="#fff" stroke="#212936" stroke-width="2" stroke-dasharray="10 5" opacity="0.6">
      <rect width="225" height="60" rx="15" stroke="none"/>
      <rect x="1" y="1" width="223" height="58" rx="14" fill="none"/>
    </g>
    <g id="Group_42" data-name="Group 42">
      <path id="Path_84" data-name="Path 84" d="M9.833.452A8.666,8.666,0,0,0,14.34-.677a7.528,7.528,0,0,0,2.933-3.2A10.937,10.937,0,0,0,18.3-8.8v-.024a10.91,10.91,0,0,0-1.035-4.919,7.508,7.508,0,0,0-2.936-3.2,8.691,8.691,0,0,0-4.5-1.123,8.682,8.682,0,0,0-4.492,1.123,7.544,7.544,0,0,0-2.945,3.2A10.851,10.851,0,0,0,1.355-8.826V-8.8A10.956,10.956,0,0,0,2.386-3.879a7.5,7.5,0,0,0,2.933,3.2A8.7,8.7,0,0,0,9.833.452Zm0-3.125A4.2,4.2,0,0,1,7.327-3.43,4.843,4.843,0,0,1,5.692-5.566,8.344,8.344,0,0,1,5.115-8.8v-.024A8.218,8.218,0,0,1,5.7-12.067a4.866,4.866,0,0,1,1.645-2.124,4.189,4.189,0,0,1,2.487-.751,4.2,4.2,0,0,1,2.493.751,4.826,4.826,0,0,1,1.639,2.124,8.294,8.294,0,0,1,.58,3.241V-8.8a8.3,8.3,0,0,1-.58,3.235A4.863,4.863,0,0,1,12.326-3.43,4.175,4.175,0,0,1,9.833-2.673ZM20.843,0h3.564V-7.52a3.166,3.166,0,0,1,.4-1.636,2.682,2.682,0,0,1,1.144-1.053,3.9,3.9,0,0,1,1.755-.369,6.589,6.589,0,0,1,.83.052,7.113,7.113,0,0,1,.806.15v-3.107a3.865,3.865,0,0,0-.613-.125,5.54,5.54,0,0,0-.717-.046,3.767,3.767,0,0,0-2.185.6,3.032,3.032,0,0,0-1.2,1.7h-.22V-13.44H20.843ZM35.831,4.724A9.034,9.034,0,0,0,39.358,4.1a5.2,5.2,0,0,0,2.3-1.782,4.619,4.619,0,0,0,.812-2.728V-13.44H38.907v2.2h-.165a4.156,4.156,0,0,0-.946-1.294,4.136,4.136,0,0,0-1.361-.827,4.826,4.826,0,0,0-1.7-.29,5.179,5.179,0,0,0-2.957.83,5.341,5.341,0,0,0-1.9,2.316,8.41,8.41,0,0,0-.665,3.464v.024a8.012,8.012,0,0,0,.662,3.36A5.257,5.257,0,0,0,31.76-1.4a5.154,5.154,0,0,0,2.911.812A5.6,5.6,0,0,0,36.38-.833a4,4,0,0,0,1.364-.739,3.839,3.839,0,0,0,.955-1.2h.22v2.5a2.2,2.2,0,0,1-.79,1.813,3.435,3.435,0,0,1-2.219.641,4.02,4.02,0,0,1-1.877-.366A1.514,1.514,0,0,1,33.2.873L33.182.824H29.66l-.006.061A3.766,3.766,0,0,0,30.56,2.89a4.9,4.9,0,0,0,2.081,1.352A9.369,9.369,0,0,0,35.831,4.724Zm.049-8.044a2.8,2.8,0,0,1-1.633-.467,2.947,2.947,0,0,1-1.031-1.3,4.909,4.909,0,0,1-.357-1.941v-.024A4.909,4.909,0,0,1,33.215-9a2.947,2.947,0,0,1,1.031-1.3,2.8,2.8,0,0,1,1.633-.467,2.865,2.865,0,0,1,1.651.467,2.991,2.991,0,0,1,1.056,1.306,4.789,4.789,0,0,1,.369,1.944v.024a4.745,4.745,0,0,1-.369,1.938,3,3,0,0,1-1.056,1.3A2.865,2.865,0,0,1,35.879-3.32ZM48.7.214a5.336,5.336,0,0,0,1.627-.238,4.146,4.146,0,0,0,1.318-.687,3.434,3.434,0,0,0,.906-1.065h.22V0h3.516V-9.174a4.468,4.468,0,0,0-.65-2.454,4.116,4.116,0,0,0-1.9-1.559,7.611,7.611,0,0,0-3.033-.54,8.228,8.228,0,0,0-2.957.488,4.949,4.949,0,0,0-2.026,1.364,3.764,3.764,0,0,0-.894,2.06l-.012.116h3.3l.018-.049a1.671,1.671,0,0,1,.818-.925A3.289,3.289,0,0,1,50.523-11a2.585,2.585,0,0,1,1.675.473,1.649,1.649,0,0,1,.577,1.352v4.285A2.247,2.247,0,0,1,52.4-3.616a2.632,2.632,0,0,1-1.025.894,3.214,3.214,0,0,1-1.474.33,2.47,2.47,0,0,1-1.517-.439,1.419,1.419,0,0,1-.589-1.2v-.024a1.375,1.375,0,0,1,.565-1.163,3.148,3.148,0,0,1,1.706-.491L54.533-6V-8.173l-5,.3a8.564,8.564,0,0,0-2.838.592,3.981,3.981,0,0,0-1.77,1.361,3.537,3.537,0,0,0-.6,2.075v.024a3.972,3.972,0,0,0,.562,2.13A3.77,3.77,0,0,0,46.437-.284,4.99,4.99,0,0,0,48.7.214ZM59,0h3.564V-7.77a3.651,3.651,0,0,1,.32-1.587A2.444,2.444,0,0,1,63.8-10.4a2.605,2.605,0,0,1,1.416-.372,2.264,2.264,0,0,1,1.862.732,3.352,3.352,0,0,1,.6,2.161V0h3.564V-8.691a5.4,5.4,0,0,0-1.175-3.723,4.354,4.354,0,0,0-3.421-1.312,4.345,4.345,0,0,0-2.417.635,3.768,3.768,0,0,0-1.44,1.727h-.22V-13.44H59ZM73.731,0H77.3V-13.44H73.731Zm1.788-15.5a1.95,1.95,0,0,0,1.419-.58,1.89,1.89,0,0,0,.589-1.4,1.894,1.894,0,0,0-.589-1.407,1.955,1.955,0,0,0-1.419-.577,1.961,1.961,0,0,0-1.413.577,1.885,1.885,0,0,0-.6,1.407,1.881,1.881,0,0,0,.6,1.4A1.956,1.956,0,0,0,75.519-15.5ZM79.705,0H90.924V-2.686H84.308v-.22l6.464-8.258V-13.44H79.809v2.686h6.75v.22l-6.854,8.49ZM98.644.287A7.786,7.786,0,0,0,101.2-.089,5.816,5.816,0,0,0,103-1.062a5.125,5.125,0,0,0,1.144-1.288,4.716,4.716,0,0,0,.571-1.318l.031-.128-3.32.006-.037.073a2.086,2.086,0,0,1-.458.565,2.932,2.932,0,0,1-.885.543,3.457,3.457,0,0,1-1.331.229,3.127,3.127,0,0,1-1.663-.427A2.775,2.775,0,0,1,95.98-4.041,4.568,4.568,0,0,1,95.6-5.981V-7.416A4.664,4.664,0,0,1,95.986-9.4a2.84,2.84,0,0,1,1.047-1.236,2.792,2.792,0,0,1,1.526-.421,2.8,2.8,0,0,1,1.52.409A2.72,2.72,0,0,1,101.1-9.433a4.856,4.856,0,0,1,.369,2.017v1.422l1.672-2.112h-9.29v2.234h11v-1.1a7.74,7.74,0,0,0-.772-3.555,5.634,5.634,0,0,0-2.2-2.356,6.568,6.568,0,0,0-3.387-.839,6.5,6.5,0,0,0-3.4.864,5.8,5.8,0,0,0-2.234,2.438,8.193,8.193,0,0,0-.79,3.717V-6.7a8.138,8.138,0,0,0,.793,3.72A5.685,5.685,0,0,0,95.128-.562,6.921,6.921,0,0,0,98.644.287Z" transform="translate(132 723)" fill="#212936"/>
      <g id="Icon_feather-database" data-name="Icon feather-database" transform="translate(83.5 698)">
        <path id="Path_15" data-name="Path 15" d="M31.5,7.5C31.5,9.985,25.456,12,18,12S4.5,9.985,4.5,7.5,10.544,3,18,3,31.5,5.015,31.5,7.5Z" fill="none" stroke="#212936" stroke-linecap="round" stroke-linejoin="round" stroke-width="3"/>
        <path id="Path_16" data-name="Path 16" d="M31.5,18c0,2.49-6,4.5-13.5,4.5S4.5,20.49,4.5,18" fill="none" stroke="#212936" stroke-linecap="round" stroke-linejoin="round" stroke-width="3"/>
        <path id="Path_17" data-name="Path 17" d="M4.5,7.5v21c0,2.49,6,4.5,13.5,4.5s13.5-2.01,13.5-4.5V7.5" fill="none" stroke="#212936" stroke-linecap="round" stroke-linejoin="round" stroke-width="3"/>
      </g>
    </g>
  </g>
</svg>
