<svg xmlns="http://www.w3.org/2000/svg" width="225" height="60" viewBox="0 0 225 60">
  <g id="Group_55" data-name="Group 55" transform="translate(-571 -685)">
    <g id="Rectangle_104" data-name="Rectangle 104" transform="translate(571 685)" fill="#fff" stroke="#212936" stroke-width="2" stroke-dasharray="10 5" opacity="0.6">
      <rect width="225" height="60" rx="15" stroke="none"/>
      <rect x="1" y="1" width="223" height="58" rx="14" fill="none"/>
    </g>
    <path id="Path_92" data-name="Path 92" d="M6.409,0H10.1V-14.575h5.286v-3.04H1.123v3.04H6.409Zm9.132,0h3.564V-7.52a3.166,3.166,0,0,1,.4-1.636,2.682,2.682,0,0,1,1.144-1.053,3.9,3.9,0,0,1,1.755-.369,6.589,6.589,0,0,1,.83.052,7.113,7.113,0,0,1,.806.15v-3.107a3.865,3.865,0,0,0-.613-.125,5.54,5.54,0,0,0-.717-.046,3.767,3.767,0,0,0-2.185.6,3.032,3.032,0,0,0-1.2,1.7h-.22V-13.44H15.541ZM28.377.214A5.336,5.336,0,0,0,30-.024a4.146,4.146,0,0,0,1.318-.687,3.434,3.434,0,0,0,.906-1.065h.22V0h3.516V-9.174a4.468,4.468,0,0,0-.65-2.454,4.116,4.116,0,0,0-1.9-1.559,7.611,7.611,0,0,0-3.033-.54,8.228,8.228,0,0,0-2.957.488A4.949,4.949,0,0,0,25.4-11.874a3.764,3.764,0,0,0-.894,2.06L24.5-9.7h3.3l.018-.049a1.671,1.671,0,0,1,.818-.925A3.289,3.289,0,0,1,30.2-11a2.585,2.585,0,0,1,1.675.473,1.649,1.649,0,0,1,.577,1.352v4.285a2.247,2.247,0,0,1-.375,1.273,2.632,2.632,0,0,1-1.025.894,3.214,3.214,0,0,1-1.474.33,2.47,2.47,0,0,1-1.517-.439,1.419,1.419,0,0,1-.589-1.2v-.024a1.375,1.375,0,0,1,.565-1.163,3.148,3.148,0,0,1,1.706-.491L34.206-6V-8.173l-5,.3a8.564,8.564,0,0,0-2.838.592A3.981,3.981,0,0,0,24.6-5.92,3.537,3.537,0,0,0,24-3.845v.024a3.972,3.972,0,0,0,.562,2.13A3.77,3.77,0,0,0,26.11-.284,4.99,4.99,0,0,0,28.377.214ZM38.7,0h3.564V-13.44H38.7Zm1.788-15.5a1.95,1.95,0,0,0,1.419-.58,1.89,1.89,0,0,0,.589-1.4,1.894,1.894,0,0,0-.589-1.407,1.955,1.955,0,0,0-1.419-.577,1.961,1.961,0,0,0-1.413.577,1.885,1.885,0,0,0-.6,1.407,1.881,1.881,0,0,0,.6,1.4A1.956,1.956,0,0,0,40.485-15.5ZM44.983,0h3.564V-7.77a3.651,3.651,0,0,1,.32-1.587A2.444,2.444,0,0,1,49.78-10.4a2.605,2.605,0,0,1,1.416-.372,2.264,2.264,0,0,1,1.862.732,3.352,3.352,0,0,1,.6,2.161V0H57.22V-8.691a5.4,5.4,0,0,0-1.175-3.723,4.354,4.354,0,0,0-3.421-1.312,4.345,4.345,0,0,0-2.417.635,3.768,3.768,0,0,0-1.44,1.727h-.22V-13.44H44.983Z" transform="translate(669.375 725.865)" fill="#212936"/>
    <path id="Icon_weather-train" data-name="Icon weather-train" d="M5.1,19.453v-.521a.556.556,0,0,1,.57-.57H18a.556.556,0,0,1,.569.57v.521a.556.556,0,0,1-.569.57h-.716v2.685h3.45a1.681,1.681,0,0,1,.569-1.155,1.765,1.765,0,0,1,1.22-.472,1.725,1.725,0,0,1,1.2.472,1.75,1.75,0,0,1,.57,1.155h2.148V17.192a.846.846,0,0,1-.57-.26.836.836,0,0,1-.244-.6v-.5a.85.85,0,0,1,.26-.618.86.86,0,0,1,.635-.26h3.238a.8.8,0,0,1,.618.26.873.873,0,0,1,.244.618v.5a.893.893,0,0,1-.228.6.719.719,0,0,1-.553.26v5.516h2.538a1.667,1.667,0,0,1,1.643,1.643v4.768L40.1,37.043H32.387V32.1H31.232a3.592,3.592,0,0,1-3.3,4.947,3.611,3.611,0,0,1-3.6-3.6,3.443,3.443,0,0,1,.26-1.351H22.966a3.58,3.58,0,0,1,.277,1.351,3.492,3.492,0,0,1-1.058,2.538,3.555,3.555,0,0,1-5.06,0,3.62,3.62,0,0,1-.781-3.889H14.407a3.553,3.553,0,0,1,.293,1.351,3.492,3.492,0,0,1-1.058,2.538A3.4,3.4,0,0,1,11.1,37.043a3.492,3.492,0,0,1-2.538-1.058,3.4,3.4,0,0,1-1.058-2.538,3.6,3.6,0,0,1,.277-1.367A1.631,1.631,0,0,1,6.4,30.453v-1.4H6.369V20.023h-.7a.556.556,0,0,1-.57-.57Zm3.336,6.411A1.222,1.222,0,0,0,9.672,27.1h2.343a1.13,1.13,0,0,0,.862-.358,1.257,1.257,0,0,0,.358-.879V22.122a1.222,1.222,0,0,0-1.22-1.22H9.689a1.251,1.251,0,0,0-1.237,1.22v3.742ZM23.861,7.656a2.2,2.2,0,0,0,.765,1.692,2.059,2.059,0,0,0,.423,1.106,1.537,1.537,0,0,0,.911.716,1.744,1.744,0,0,0,.5.927,2,2,0,0,0,.96.488.86.86,0,0,0-.26.635,1,1,0,0,0,1.025,1.025,1.007,1.007,0,0,0,.748-.309.972.972,0,0,0,.309-.732.56.56,0,0,0-.016-.146.674.674,0,0,1-.016-.163h.049a1.206,1.206,0,0,0,.879-.374,1.243,1.243,0,0,0,.374-.895,1.463,1.463,0,0,0-.2-.618,1.563,1.563,0,0,0,.667-.765h.732a2.365,2.365,0,0,0,1.627-.732,2.223,2.223,0,0,0,.683-1.643A2.2,2.2,0,0,0,33.494,6.4a2.632,2.632,0,0,0-1.351-.846,2.673,2.673,0,0,0-1.009-1.611,2.889,2.889,0,0,0-1.822-.635,2.725,2.725,0,0,0-1.757.618,2.926,2.926,0,0,0-1.009,1.578h-.179a2.653,2.653,0,0,0-1.757.635A1.886,1.886,0,0,0,23.861,7.656Z" transform="translate(622.525 692.823)" fill="#212936"/>
  </g>
</svg>
