<svg xmlns="http://www.w3.org/2000/svg" xmlns:xlink="http://www.w3.org/1999/xlink" width="862" height="100" viewBox="0 0 862 100">
  <defs>
    <filter id="Rectangle_109" x="0" y="0" width="280" height="100" filterUnits="userSpaceOnUse">
      <feOffset dy="3" input="SourceAlpha"/>
      <feGaussianBlur stdDeviation="5" result="blur"/>
      <feFlood flood-opacity="0.161"/>
      <feComposite operator="in" in2="blur"/>
      <feComposite in="SourceGraphic"/>
    </filter>
    <filter id="Rectangle_110" x="291" y="0" width="280" height="100" filterUnits="userSpaceOnUse">
      <feOffset dy="3" input="SourceAlpha"/>
      <feGaussianBlur stdDeviation="5" result="blur-2"/>
      <feFlood flood-opacity="0.161"/>
      <feComposite operator="in" in2="blur-2"/>
      <feComposite in="SourceGraphic"/>
    </filter>
    <filter id="Rectangle_111" x="582" y="0" width="280" height="100" filterUnits="userSpaceOnUse">
      <feOffset dy="3" input="SourceAlpha"/>
      <feGaussianBlur stdDeviation="5" result="blur-3"/>
      <feFlood flood-opacity="0.161"/>
      <feComposite operator="in" in2="blur-3"/>
      <feComposite in="SourceGraphic"/>
    </filter>
  </defs>
  <g id="Group_47" data-name="Group 47" transform="translate(-258.499 -1070)">
    <g transform="matrix(1, 0, 0, 1, 258.5, 1070)" filter="url(#Rectangle_109)">
      <rect id="Rectangle_109-2" data-name="Rectangle 109" width="250" height="70" rx="35" transform="translate(15 12)" fill="#fff"/>
    </g>
    <g transform="matrix(1, 0, 0, 1, 258.5, 1070)" filter="url(#Rectangle_110)">
      <rect id="Rectangle_110-2" data-name="Rectangle 110" width="250" height="70" rx="35" transform="translate(306 12)" fill="#fff"/>
    </g>
    <g transform="matrix(1, 0, 0, 1, 258.5, 1070)" filter="url(#Rectangle_111)">
      <rect id="Rectangle_111-2" data-name="Rectangle 111" width="250" height="70" rx="35" transform="translate(597 12)" fill="#fff"/>
    </g>
    <g id="Group_12" data-name="Group 12" transform="translate(-16.501 -999)">
      <text id="DataMaker" transform="translate(373 2126)" fill="#212936" font-size="28" font-family="'\.AppleSystemUIFont'" font-weight="700"><tspan x="0" y="0">DataMaker</tspan></text>
      <g id="Group_7" data-name="Group 7">
        <path id="Path_35" data-name="Path 35" d="M28,0A28,28,0,1,1,0,28,28,28,0,0,1,28,0Z" transform="translate(313 2088)" fill="#9385de"/>
        <path id="Path_61" data-name="Path 61" d="M13.4,23.575a1.35,1.35,0,1,0,1.35,1.35A1.354,1.354,0,0,0,13.4,23.575ZM18.8,4C13.4,4,8,5.85,8,9.4V25.6c0,3.55,5.4,5.4,10.8,5.4s10.8-1.85,10.8-5.4V9.4C29.6,5.85,24.2,4,18.8,4Zm8.1,21.6c0,.958-3.078,2.7-8.1,2.7s-8.1-1.742-8.1-2.7V21.186A17.767,17.767,0,0,0,18.8,22.9a17.767,17.767,0,0,0,8.1-1.715Zm0-8.1c0,.958-3.078,2.7-8.1,2.7s-8.1-1.742-8.1-2.7V13.085A17.767,17.767,0,0,0,18.8,14.8a17.767,17.767,0,0,0,8.1-1.715Zm-8.1-5.4c-5.022,0-8.1-1.741-8.1-2.7s3.078-2.7,8.1-2.7,8.1,1.741,8.1,2.7S23.822,12.1,18.8,12.1Zm-5.4,3.375a1.35,1.35,0,1,0,1.35,1.35A1.354,1.354,0,0,0,13.4,15.475Z" transform="translate(322.2 2098.5)" fill="#fff"/>
      </g>
    </g>
    <g id="Group_10" data-name="Group 10" transform="translate(-16.501 -999)">
      <text id="ModelMaker" transform="translate(651 2127)" fill="#212936" font-size="28" font-family="'\.AppleSystemUIFont'" font-weight="700"><tspan x="0" y="0">ModelMaker</tspan></text>
      <g id="Group_8" data-name="Group 8">
        <circle id="Ellipse_27" data-name="Ellipse 27" cx="28" cy="28" r="28" transform="translate(591 2088)" fill="#edb85e"/>
        <path id="Icon_ionic-ios-flask" data-name="Icon ionic-ios-flask" d="M26.936,21.788,19.922,10.1a.222.222,0,0,1-.036-.126V5.3a.241.241,0,0,1,.24-.24.723.723,0,0,0,.721-.721V4.1a.723.723,0,0,0-.721-.721H11.936a.723.723,0,0,0-.721.721v.24a.723.723,0,0,0,.721.721.241.241,0,0,1,.24.24V9.98a.217.217,0,0,1-.036.12L5.2,21.788a5.579,5.579,0,0,0-.727,2.74A3.865,3.865,0,0,0,8.39,28.375H23.811a3.761,3.761,0,0,0,3.8-3.846A5.563,5.563,0,0,0,26.936,21.788ZM10.373,17.8a.482.482,0,0,1-.415-.727l3.636-6.112a1.938,1.938,0,0,0,.27-.98V5.3c0-.084-.006-.162-.012-.24h4.369a1.571,1.571,0,0,0-.012.24V9.98a1.891,1.891,0,0,0,.276.986l3.63,6.106a.482.482,0,0,1-.415.727Z" transform="translate(602.96 2100.125)" fill="#fff"/>
      </g>
    </g>
    <g id="Group_11" data-name="Group 11" transform="translate(-15.501 -999)">
      <text id="AppMaker" transform="translate(948 2125)" fill="#212936" font-size="28" font-family="'\.AppleSystemUIFont'" font-weight="700"><tspan x="0" y="0">AppMaker</tspan></text>
      <g id="Group_9" data-name="Group 9">
        <circle id="Ellipse_28" data-name="Ellipse 28" cx="28" cy="28" r="28" transform="translate(888 2088)" fill="#76d6c3"/>
        <path id="Icon_material-apps" data-name="Icon material-apps" d="M6,12h6V6H6Zm9,18h6V24H15ZM6,30h6V24H6Zm0-9h6V15H6Zm9,0h6V15H15ZM24,6v6h6V6Zm-9,6h6V6H15Zm9,9h6V15H24Zm0,9h6V24H24Z" transform="translate(898 2098)" fill="#fff"/>
      </g>
    </g>
    <path id="Icon_ionic-md-arrow-round-forward" data-name="Icon ionic-md-arrow-round-forward" d="M20.032,29.011l9.71-9.422a2.142,2.142,0,0,0,.633-1.575v-.028a2.142,2.142,0,0,0-.633-1.575l-9.71-9.422a2.079,2.079,0,0,0-3.038,0,2.326,2.326,0,0,0,0,3.178L22.83,15.75H7.784a2.252,2.252,0,0,0-.007,4.5H22.823l-5.836,5.583a2.326,2.326,0,0,0,0,3.178A2.087,2.087,0,0,0,20.032,29.011Z" transform="translate(525.874 1099)" fill="#212936"/>
    <path id="Icon_ionic-md-arrow-round-forward-2" data-name="Icon ionic-md-arrow-round-forward" d="M20.032,29.011l9.71-9.422a2.142,2.142,0,0,0,.633-1.575v-.028a2.142,2.142,0,0,0-.633-1.575l-9.71-9.422a2.079,2.079,0,0,0-3.038,0,2.326,2.326,0,0,0,0,3.178L22.83,15.75H7.784a2.252,2.252,0,0,0-.007,4.5H22.823l-5.836,5.583a2.326,2.326,0,0,0,0,3.178A2.087,2.087,0,0,0,20.032,29.011Z" transform="translate(816.874 1099)" fill="#212936"/>
  </g>
</svg>
