
<svg xmlns="http://www.w3.org/2000/svg" xmlns:xlink="http://www.w3.org/1999/xlink" width="862" height="100" viewBox="0 0 862 100">
  <defs>
    <filter id="Rectangle_109" x="0" y="0" width="280" height="100" filterUnits="userSpaceOnUse">
      <feOffset dy="3" input="SourceAlpha"/>
      <feGaussianBlur stdDeviation="5" result="blur"/>
      <feFlood flood-opacity="0.161"/>
      <feComposite operator="in" in2="blur"/>
      <feComposite in="SourceGraphic"/>
    </filter>
    <filter id="Rectangle_110" x="291" y="0" width="280" height="100" filterUnits="userSpaceOnUse">
      <feOffset dy="3" input="SourceAlpha"/>
      <feGaussianBlur stdDeviation="5" result="blur-2"/>
      <feFlood flood-opacity="0.161"/>
      <feComposite operator="in" in2="blur-2"/>
      <feComposite in="SourceGraphic"/>
    </filter>
    <filter id="Rectangle_111" x="582" y="0" width="280" height="100" filterUnits="userSpaceOnUse">
      <feOffset dy="3" input="SourceAlpha"/>
      <feGaussianBlur stdDeviation="5" result="blur-3"/>
      <feFlood flood-opacity="0.161"/>
      <feComposite operator="in" in2="blur-3"/>
      <feComposite in="SourceGraphic"/>
    </filter>
  </defs>
  <g id="Group_47" data-name="Group 47" transform="translate(-258.499 -1070)">
    <g transform="matrix(1, 0, 0, 1, 258.5, 1070)" filter="url(#Rectangle_109)">
      <rect id="Rectangle_109-2" data-name="Rectangle 109" width="250" height="70" rx="35" transform="translate(15 12)" fill="#fff"/>
    </g>
    <g transform="matrix(1, 0, 0, 1, 258.5, 1070)" filter="url(#Rectangle_110)">
      <rect id="Rectangle_110-2" data-name="Rectangle 110" width="250" height="70" rx="35" transform="translate(306 12)" fill="#fff"/>
    </g>
    <g transform="matrix(1, 0, 0, 1, 258.5, 1070)" filter="url(#Rectangle_111)">
      <rect id="Rectangle_111-2" data-name="Rectangle 111" width="250" height="70" rx="35" transform="translate(597 12)" fill="#fff"/>
    </g>
    <g id="Group_12" data-name="Group 12" transform="translate(-16.501 -999)">
      <path id="Path_88" data-name="Path 88" d="M2.393,0h7.759a10.077,10.077,0,0,0,5.024-1.166,7.606,7.606,0,0,0,3.148-3.4A12.32,12.32,0,0,0,19.407-9.98v-.027a11.638,11.638,0,0,0-1.09-5.264,7.561,7.561,0,0,0-3.158-3.315,10.223,10.223,0,0,0-5.007-1.142H2.393ZM6.521-3.4v-12.92H9.5a5.953,5.953,0,0,1,3.066.749A4.864,4.864,0,0,1,14.52-13.4,8.031,8.031,0,0,1,15.2-9.939v.027a8.549,8.549,0,0,1-.663,3.555,4.769,4.769,0,0,1-1.935,2.2A6.006,6.006,0,0,1,9.5-3.4ZM26.011.239a5.976,5.976,0,0,0,1.822-.267A4.644,4.644,0,0,0,29.309-.8a3.847,3.847,0,0,0,1.015-1.193h.246V0h3.938V-10.274a5,5,0,0,0-.728-2.748,4.609,4.609,0,0,0-2.123-1.747,8.524,8.524,0,0,0-3.4-.6,9.215,9.215,0,0,0-3.312.547,5.542,5.542,0,0,0-2.27,1.528,4.216,4.216,0,0,0-1,2.307l-.014.13h3.691l.021-.055a1.871,1.871,0,0,1,.916-1.036,3.684,3.684,0,0,1,1.757-.366,2.9,2.9,0,0,1,1.876.53,1.847,1.847,0,0,1,.646,1.514v4.8a2.517,2.517,0,0,1-.42,1.425,2.947,2.947,0,0,1-1.148,1,3.6,3.6,0,0,1-1.651.369,2.766,2.766,0,0,1-1.7-.492,1.589,1.589,0,0,1-.66-1.347v-.027a1.54,1.54,0,0,1,.632-1.3,3.525,3.525,0,0,1,1.911-.55l5-.321V-9.153l-5.6.335a9.591,9.591,0,0,0-3.179.663,4.459,4.459,0,0,0-1.982,1.524A3.961,3.961,0,0,0,21.1-4.307v.027a4.449,4.449,0,0,0,.629,2.386,4.222,4.222,0,0,0,1.74,1.576A5.589,5.589,0,0,0,26.011.239ZM43.859.055q.581,0,1.1-.051t.892-.12V-3.083q-.287.027-.54.044t-.636.017a1.989,1.989,0,0,1-1.473-.472,2.055,2.055,0,0,1-.461-1.483v-7.068h3.11v-3.008h-3.11v-3.6H38.712v3.6H36.395v3.008h2.317v7.991a3.794,3.794,0,0,0,1.2,3.148A6.368,6.368,0,0,0,43.859.055Zm8.046.185a5.976,5.976,0,0,0,1.822-.267A4.644,4.644,0,0,0,55.2-.8a3.847,3.847,0,0,0,1.015-1.193h.246V0H60.4V-10.274a5,5,0,0,0-.728-2.748,4.609,4.609,0,0,0-2.123-1.747,8.524,8.524,0,0,0-3.4-.6,9.215,9.215,0,0,0-3.312.547,5.542,5.542,0,0,0-2.27,1.528,4.216,4.216,0,0,0-1,2.307l-.014.13h3.691l.021-.055a1.871,1.871,0,0,1,.916-1.036,3.684,3.684,0,0,1,1.757-.366,2.9,2.9,0,0,1,1.876.53,1.847,1.847,0,0,1,.646,1.514v4.8a2.517,2.517,0,0,1-.42,1.425,2.947,2.947,0,0,1-1.148,1,3.6,3.6,0,0,1-1.651.369,2.766,2.766,0,0,1-1.7-.492,1.589,1.589,0,0,1-.66-1.347v-.027a1.54,1.54,0,0,1,.632-1.3A3.525,3.525,0,0,1,53.43-6.4l5-.321V-9.153l-5.6.335a9.591,9.591,0,0,0-3.179.663,4.459,4.459,0,0,0-1.982,1.524A3.961,3.961,0,0,0,47-4.307v.027a4.449,4.449,0,0,0,.629,2.386,4.222,4.222,0,0,0,1.74,1.576A5.589,5.589,0,0,0,51.905.239ZM63.9,0H67.58V-13.426h2.03l-3.924-5.756L72.905,0H75.5l7.226-19.182-3.931,5.756h2.03V0H84.5V-19.729H79.775L74.327-5.284h-.239L68.626-19.729H63.9ZM91.793.239a5.976,5.976,0,0,0,1.822-.267A4.644,4.644,0,0,0,95.091-.8a3.847,3.847,0,0,0,1.015-1.193h.246V0h3.938V-10.274a5,5,0,0,0-.728-2.748,4.609,4.609,0,0,0-2.123-1.747,8.524,8.524,0,0,0-3.4-.6,9.215,9.215,0,0,0-3.312.547A5.542,5.542,0,0,0,88.46-13.3a4.216,4.216,0,0,0-1,2.307l-.014.13h3.691l.021-.055a1.871,1.871,0,0,1,.916-1.036,3.684,3.684,0,0,1,1.757-.366,2.9,2.9,0,0,1,1.876.53,1.847,1.847,0,0,1,.646,1.514v4.8a2.517,2.517,0,0,1-.42,1.425,2.947,2.947,0,0,1-1.148,1,3.6,3.6,0,0,1-1.651.369,2.766,2.766,0,0,1-1.7-.492,1.589,1.589,0,0,1-.66-1.347v-.027a1.54,1.54,0,0,1,.632-1.3,3.525,3.525,0,0,1,1.911-.55l5-.321V-9.153l-5.6.335a9.591,9.591,0,0,0-3.179.663,4.459,4.459,0,0,0-1.982,1.524,3.961,3.961,0,0,0-.677,2.324v.027a4.449,4.449,0,0,0,.629,2.386,4.222,4.222,0,0,0,1.74,1.576A5.589,5.589,0,0,0,91.793.239ZM103.53,0h3.992V-20.809H103.53ZM113,0h4.717l-6.357-8.921-2.974,2.393Zm-5.756-4.751,1.75-1.859,2.14-1.6,6.193-6.843h-4.532l-5.024,5.947h-.656ZM124.77.321a8.721,8.721,0,0,0,2.857-.42,6.514,6.514,0,0,0,2.023-1.09,5.74,5.74,0,0,0,1.282-1.442,5.282,5.282,0,0,0,.639-1.477l.034-.144-3.719.007-.041.082a2.336,2.336,0,0,1-.513.632,3.283,3.283,0,0,1-.991.608,3.872,3.872,0,0,1-1.49.256,3.5,3.5,0,0,1-1.863-.479,3.108,3.108,0,0,1-1.2-1.381,5.117,5.117,0,0,1-.42-2.174V-8.306a5.223,5.223,0,0,1,.427-2.225,3.181,3.181,0,0,1,1.172-1.384,3.127,3.127,0,0,1,1.709-.472,3.14,3.14,0,0,1,1.7.458,3.046,3.046,0,0,1,1.145,1.364,5.439,5.439,0,0,1,.414,2.259v1.593l1.873-2.365H119.4v2.5h12.325V-7.813a8.669,8.669,0,0,0-.865-3.982,6.31,6.31,0,0,0-2.464-2.639,7.356,7.356,0,0,0-3.794-.94,7.283,7.283,0,0,0-3.811.967,6.5,6.5,0,0,0-2.5,2.731,9.176,9.176,0,0,0-.885,4.163V-7.5a9.114,9.114,0,0,0,.889,4.167,6.367,6.367,0,0,0,2.536,2.7A7.751,7.751,0,0,0,124.77.321Zm9.3-.321h3.992V-8.422a3.546,3.546,0,0,1,.451-1.832,3,3,0,0,1,1.282-1.179,4.362,4.362,0,0,1,1.965-.414,7.38,7.38,0,0,1,.93.058,7.967,7.967,0,0,1,.9.167V-15.1a4.329,4.329,0,0,0-.687-.14,6.2,6.2,0,0,0-.8-.051,4.219,4.219,0,0,0-2.447.677,3.4,3.4,0,0,0-1.347,1.907h-.246v-2.345h-3.992Z" transform="translate(373 2126)" fill="#212936"/>
      <g id="Group_7" data-name="Group 7">
        <path id="Path_35" data-name="Path 35" d="M28,0A28,28,0,1,1,0,28,28,28,0,0,1,28,0Z" transform="translate(313 2088)" fill="#9385de"/>
        <path id="Path_61" data-name="Path 61" d="M13.4,23.575a1.35,1.35,0,1,0,1.35,1.35A1.354,1.354,0,0,0,13.4,23.575ZM18.8,4C13.4,4,8,5.85,8,9.4V25.6c0,3.55,5.4,5.4,10.8,5.4s10.8-1.85,10.8-5.4V9.4C29.6,5.85,24.2,4,18.8,4Zm8.1,21.6c0,.958-3.078,2.7-8.1,2.7s-8.1-1.742-8.1-2.7V21.186A17.767,17.767,0,0,0,18.8,22.9a17.767,17.767,0,0,0,8.1-1.715Zm0-8.1c0,.958-3.078,2.7-8.1,2.7s-8.1-1.742-8.1-2.7V13.085A17.767,17.767,0,0,0,18.8,14.8a17.767,17.767,0,0,0,8.1-1.715Zm-8.1-5.4c-5.022,0-8.1-1.741-8.1-2.7s3.078-2.7,8.1-2.7,8.1,1.741,8.1,2.7S23.822,12.1,18.8,12.1Zm-5.4,3.375a1.35,1.35,0,1,0,1.35,1.35A1.354,1.354,0,0,0,13.4,15.475Z" transform="translate(322.2 2098.5)" fill="#fff"/>
      </g>
    </g>
    <g id="Group_10" data-name="Group 10" transform="translate(-16.501 -999)">
      <path id="Path_89" data-name="Path 89" d="M2.393,0H6.07V-13.426H8.1L4.177-19.182,11.4,0h2.591l7.226-19.182-3.931,5.756h2.03V0h3.678V-19.729H18.266L12.817-5.284h-.239L7.116-19.729H2.393ZM33.168.321a7.969,7.969,0,0,0,3.985-.94,6.275,6.275,0,0,0,2.55-2.7,9.218,9.218,0,0,0,.889-4.2v-.027a9.076,9.076,0,0,0-.9-4.187,6.364,6.364,0,0,0-2.56-2.7,7.9,7.9,0,0,0-3.965-.943,7.869,7.869,0,0,0-3.955.947,6.4,6.4,0,0,0-2.567,2.7,9.031,9.031,0,0,0-.9,4.18v.027a9.188,9.188,0,0,0,.892,4.2,6.29,6.29,0,0,0,2.557,2.7A7.959,7.959,0,0,0,33.168.321Zm0-3.131a2.928,2.928,0,0,1-1.8-.557,3.452,3.452,0,0,1-1.138-1.61,7.268,7.268,0,0,1-.393-2.536V-7.54a7.16,7.16,0,0,1,.4-2.526,3.519,3.519,0,0,1,1.142-1.613,2.893,2.893,0,0,1,1.8-.564,2.889,2.889,0,0,1,1.8.564,3.531,3.531,0,0,1,1.138,1.613,7.16,7.16,0,0,1,.4,2.526v.027a7.246,7.246,0,0,1-.393,2.529A3.485,3.485,0,0,1,34.976-3.37,2.912,2.912,0,0,1,33.168-2.81ZM48.275.239a5.822,5.822,0,0,0,1.941-.308A4.553,4.553,0,0,0,51.741-.95,4.342,4.342,0,0,0,52.78-2.331h.246V0h3.992V-20.809H53.026v8.162H52.78a4.157,4.157,0,0,0-1.042-1.415,4.8,4.8,0,0,0-1.548-.909,5.551,5.551,0,0,0-1.914-.321,5.683,5.683,0,0,0-3.274.93A5.9,5.9,0,0,0,42.9-11.7a10.632,10.632,0,0,0-.735,4.156v.027a10.47,10.47,0,0,0,.745,4.139A5.993,5.993,0,0,0,45.028-.7,5.625,5.625,0,0,0,48.275.239Zm1.36-3.309A3.1,3.1,0,0,1,47.817-3.6a3.385,3.385,0,0,1-1.179-1.531,6.2,6.2,0,0,1-.414-2.379V-7.54a6.171,6.171,0,0,1,.414-2.375,3.4,3.4,0,0,1,1.183-1.531,3.091,3.091,0,0,1,1.815-.537,3.1,3.1,0,0,1,1.822.537,3.444,3.444,0,0,1,1.189,1.531,6.1,6.1,0,0,1,.42,2.382v.027a6.132,6.132,0,0,1-.417,2.372A3.4,3.4,0,0,1,51.464-3.6,3.129,3.129,0,0,1,49.636-3.069ZM66.582.321A8.721,8.721,0,0,0,69.439-.1a6.514,6.514,0,0,0,2.023-1.09,5.74,5.74,0,0,0,1.282-1.442,5.282,5.282,0,0,0,.639-1.477l.034-.144L69.7-4.245l-.041.082a2.336,2.336,0,0,1-.513.632,3.283,3.283,0,0,1-.991.608,3.872,3.872,0,0,1-1.49.256A3.5,3.5,0,0,1,64.8-3.145a3.108,3.108,0,0,1-1.2-1.381,5.117,5.117,0,0,1-.42-2.174V-8.306a5.223,5.223,0,0,1,.427-2.225,3.181,3.181,0,0,1,1.172-1.384,3.127,3.127,0,0,1,1.709-.472,3.14,3.14,0,0,1,1.7.458,3.046,3.046,0,0,1,1.145,1.364,5.439,5.439,0,0,1,.414,2.259v1.593L71.62-9.078h-10.4v2.5H73.541V-7.813a8.669,8.669,0,0,0-.865-3.982,6.31,6.31,0,0,0-2.464-2.639,7.356,7.356,0,0,0-3.794-.94,7.283,7.283,0,0,0-3.811.967,6.5,6.5,0,0,0-2.5,2.731,9.176,9.176,0,0,0-.885,4.163V-7.5a9.114,9.114,0,0,0,.889,4.167,6.367,6.367,0,0,0,2.536,2.7A7.751,7.751,0,0,0,66.582.321ZM76.022,0h3.992V-20.809H76.022Zm7.424,0h3.678V-13.426h2.03L85.23-19.182,92.449,0H95.04l7.226-19.182-3.931,5.756h2.03V0h3.678V-19.729H99.319L93.871-5.284h-.239L88.17-19.729H83.446Zm27.891.239a5.976,5.976,0,0,0,1.822-.267A4.644,4.644,0,0,0,114.635-.8a3.847,3.847,0,0,0,1.015-1.193h.246V0h3.938V-10.274a5,5,0,0,0-.728-2.748,4.609,4.609,0,0,0-2.123-1.747,8.524,8.524,0,0,0-3.4-.6,9.215,9.215,0,0,0-3.312.547A5.542,5.542,0,0,0,108-13.3a4.216,4.216,0,0,0-1,2.307l-.014.13h3.691l.021-.055a1.871,1.871,0,0,1,.916-1.036,3.684,3.684,0,0,1,1.757-.366,2.9,2.9,0,0,1,1.876.53,1.847,1.847,0,0,1,.646,1.514v4.8a2.517,2.517,0,0,1-.42,1.425,2.947,2.947,0,0,1-1.148,1,3.6,3.6,0,0,1-1.651.369,2.766,2.766,0,0,1-1.7-.492,1.589,1.589,0,0,1-.66-1.347v-.027a1.54,1.54,0,0,1,.632-1.3,3.525,3.525,0,0,1,1.911-.55l5-.321V-9.153l-5.6.335a9.591,9.591,0,0,0-3.179.663,4.459,4.459,0,0,0-1.982,1.524,3.961,3.961,0,0,0-.677,2.324v.027a4.449,4.449,0,0,0,.629,2.386A4.222,4.222,0,0,0,108.8-.318,5.589,5.589,0,0,0,111.337.239ZM123.074,0h3.992V-20.809h-3.992Zm9.468,0h4.717L130.9-8.921l-2.974,2.393Zm-5.756-4.751,1.75-1.859,2.14-1.6,6.193-6.843h-4.532l-5.024,5.947h-.656ZM144.313.321a8.721,8.721,0,0,0,2.857-.42,6.514,6.514,0,0,0,2.023-1.09,5.74,5.74,0,0,0,1.282-1.442,5.282,5.282,0,0,0,.639-1.477l.034-.144-3.719.007-.041.082a2.336,2.336,0,0,1-.513.632,3.283,3.283,0,0,1-.991.608,3.872,3.872,0,0,1-1.49.256,3.5,3.5,0,0,1-1.863-.479,3.108,3.108,0,0,1-1.2-1.381,5.117,5.117,0,0,1-.42-2.174V-8.306a5.223,5.223,0,0,1,.427-2.225,3.181,3.181,0,0,1,1.172-1.384,3.127,3.127,0,0,1,1.709-.472,3.14,3.14,0,0,1,1.7.458,3.046,3.046,0,0,1,1.145,1.364,5.439,5.439,0,0,1,.414,2.259v1.593l1.873-2.365h-10.4v2.5h12.325V-7.813a8.669,8.669,0,0,0-.865-3.982,6.31,6.31,0,0,0-2.464-2.639,7.356,7.356,0,0,0-3.794-.94,7.283,7.283,0,0,0-3.811.967,6.5,6.5,0,0,0-2.5,2.731,9.176,9.176,0,0,0-.885,4.163V-7.5a9.114,9.114,0,0,0,.889,4.167,6.367,6.367,0,0,0,2.536,2.7A7.751,7.751,0,0,0,144.313.321Zm9.3-.321h3.992V-8.422a3.546,3.546,0,0,1,.451-1.832,3,3,0,0,1,1.282-1.179,4.362,4.362,0,0,1,1.965-.414,7.38,7.38,0,0,1,.93.058,7.967,7.967,0,0,1,.9.167V-15.1a4.329,4.329,0,0,0-.687-.14,6.2,6.2,0,0,0-.8-.051,4.219,4.219,0,0,0-2.447.677,3.4,3.4,0,0,0-1.347,1.907h-.246v-2.345h-3.992Z" transform="translate(651 2127)" fill="#212936"/>
      <g id="Group_8" data-name="Group 8">
        <circle id="Ellipse_27" data-name="Ellipse 27" cx="28" cy="28" r="28" transform="translate(591 2088)" fill="#edb85e"/>
        <path id="Icon_ionic-ios-flask" data-name="Icon ionic-ios-flask" d="M26.936,21.788,19.922,10.1a.222.222,0,0,1-.036-.126V5.3a.241.241,0,0,1,.24-.24.723.723,0,0,0,.721-.721V4.1a.723.723,0,0,0-.721-.721H11.936a.723.723,0,0,0-.721.721v.24a.723.723,0,0,0,.721.721.241.241,0,0,1,.24.24V9.98a.217.217,0,0,1-.036.12L5.2,21.788a5.579,5.579,0,0,0-.727,2.74A3.865,3.865,0,0,0,8.39,28.375H23.811a3.761,3.761,0,0,0,3.8-3.846A5.563,5.563,0,0,0,26.936,21.788ZM10.373,17.8a.482.482,0,0,1-.415-.727l3.636-6.112a1.938,1.938,0,0,0,.27-.98V5.3c0-.084-.006-.162-.012-.24h4.369a1.571,1.571,0,0,0-.012.24V9.98a1.891,1.891,0,0,0,.276.986l3.63,6.106a.482.482,0,0,1-.415.727Z" transform="translate(602.96 2100.125)" fill="#fff"/>
      </g>
    </g>
    <g id="Group_11" data-name="Group 11" transform="translate(-15.501 -999)">
      <path id="Path_90" data-name="Path 90" d="M.978,0H5.318l4.819-15.784h1.21v-3.944H7.834ZM4.648-4.785H15.791l-1.012-3.09H5.66ZM15.2,0h4.341L12.688-19.729h-2.3v3.944Zm6.556,4.99h3.992v-7.4H26A4.314,4.314,0,0,0,27.043-.995a4.725,4.725,0,0,0,1.545.913A5.551,5.551,0,0,0,30.5.239a5.683,5.683,0,0,0,3.274-.93,5.9,5.9,0,0,0,2.1-2.666,10.632,10.632,0,0,0,.735-4.156V-7.54a10.439,10.439,0,0,0-.745-4.139,6.039,6.039,0,0,0-2.112-2.673,5.6,5.6,0,0,0-3.254-.94,5.83,5.83,0,0,0-1.938.308,4.578,4.578,0,0,0-1.528.878A4.282,4.282,0,0,0,26-12.722h-.246v-2.331H21.759Zm7.383-8.06a3.107,3.107,0,0,1-1.818-.537A3.43,3.43,0,0,1,26.13-5.144a6.114,6.114,0,0,1-.42-2.375v-.027a6.12,6.12,0,0,1,.417-2.379,3.392,3.392,0,0,1,1.189-1.524,3.133,3.133,0,0,1,1.825-.533,3.1,3.1,0,0,1,1.822.533,3.4,3.4,0,0,1,1.176,1.528,6.191,6.191,0,0,1,.414,2.382v.027a6.177,6.177,0,0,1-.414,2.372,3.417,3.417,0,0,1-1.176,1.535A3.083,3.083,0,0,1,29.142-3.069Zm9.611,8.06h3.992v-7.4h.246A4.314,4.314,0,0,0,44.037-.995a4.725,4.725,0,0,0,1.545.913A5.551,5.551,0,0,0,47.5.239a5.683,5.683,0,0,0,3.274-.93,5.9,5.9,0,0,0,2.1-2.666,10.632,10.632,0,0,0,.735-4.156V-7.54a10.439,10.439,0,0,0-.745-4.139,6.039,6.039,0,0,0-2.112-2.673,5.6,5.6,0,0,0-3.254-.94,5.83,5.83,0,0,0-1.938.308,4.578,4.578,0,0,0-1.528.878,4.282,4.282,0,0,0-1.039,1.384h-.246v-2.331H38.753Zm7.383-8.06a3.107,3.107,0,0,1-1.818-.537,3.43,3.43,0,0,1-1.193-1.538A6.114,6.114,0,0,1,42.7-7.52v-.027a6.12,6.12,0,0,1,.417-2.379,3.392,3.392,0,0,1,1.189-1.524,3.133,3.133,0,0,1,1.825-.533,3.1,3.1,0,0,1,1.822.533,3.4,3.4,0,0,1,1.176,1.528,6.191,6.191,0,0,1,.414,2.382v.027a6.177,6.177,0,0,1-.414,2.372,3.417,3.417,0,0,1-1.176,1.535A3.083,3.083,0,0,1,46.136-3.069ZM56.144,0h3.678V-13.426h2.03l-3.924-5.756L65.146,0h2.591l7.226-19.182-3.931,5.756h2.03V0H76.74V-19.729H72.017L66.568-5.284h-.239L60.867-19.729H56.144ZM84.034.239a5.976,5.976,0,0,0,1.822-.267A4.644,4.644,0,0,0,87.333-.8a3.847,3.847,0,0,0,1.015-1.193h.246V0h3.938V-10.274a5,5,0,0,0-.728-2.748,4.609,4.609,0,0,0-2.123-1.747,8.524,8.524,0,0,0-3.4-.6,9.215,9.215,0,0,0-3.312.547A5.542,5.542,0,0,0,80.7-13.3a4.216,4.216,0,0,0-1,2.307l-.014.13h3.691l.021-.055a1.871,1.871,0,0,1,.916-1.036,3.684,3.684,0,0,1,1.757-.366,2.9,2.9,0,0,1,1.876.53,1.847,1.847,0,0,1,.646,1.514v4.8a2.517,2.517,0,0,1-.42,1.425,2.947,2.947,0,0,1-1.148,1,3.6,3.6,0,0,1-1.651.369,2.766,2.766,0,0,1-1.7-.492,1.589,1.589,0,0,1-.66-1.347v-.027a1.54,1.54,0,0,1,.632-1.3,3.525,3.525,0,0,1,1.911-.55l5-.321V-9.153l-5.6.335a9.591,9.591,0,0,0-3.179.663A4.459,4.459,0,0,0,79.8-6.631a3.961,3.961,0,0,0-.677,2.324v.027a4.449,4.449,0,0,0,.629,2.386,4.222,4.222,0,0,0,1.74,1.576A5.589,5.589,0,0,0,84.034.239ZM95.771,0h3.992V-20.809H95.771Zm9.468,0h4.717L103.6-8.921l-2.974,2.393ZM99.483-4.751l1.75-1.859,2.14-1.6,6.193-6.843h-4.532L100.01-9.105h-.656ZM117.011.321a8.721,8.721,0,0,0,2.857-.42,6.514,6.514,0,0,0,2.023-1.09,5.74,5.74,0,0,0,1.282-1.442,5.282,5.282,0,0,0,.639-1.477l.034-.144-3.719.007-.041.082a2.336,2.336,0,0,1-.513.632,3.283,3.283,0,0,1-.991.608,3.872,3.872,0,0,1-1.49.256,3.5,3.5,0,0,1-1.863-.479,3.108,3.108,0,0,1-1.2-1.381,5.117,5.117,0,0,1-.42-2.174V-8.306a5.223,5.223,0,0,1,.427-2.225,3.181,3.181,0,0,1,1.172-1.384,3.127,3.127,0,0,1,1.709-.472,3.14,3.14,0,0,1,1.7.458,3.046,3.046,0,0,1,1.145,1.364,5.439,5.439,0,0,1,.414,2.259v1.593l1.873-2.365h-10.4v2.5H123.97V-7.813A8.669,8.669,0,0,0,123.1-11.8a6.31,6.31,0,0,0-2.464-2.639,7.356,7.356,0,0,0-3.794-.94,7.283,7.283,0,0,0-3.811.967,6.5,6.5,0,0,0-2.5,2.731,9.176,9.176,0,0,0-.885,4.163V-7.5a9.114,9.114,0,0,0,.889,4.167,6.367,6.367,0,0,0,2.536,2.7A7.751,7.751,0,0,0,117.011.321Zm9.3-.321h3.992V-8.422a3.546,3.546,0,0,1,.451-1.832,3,3,0,0,1,1.282-1.179A4.362,4.362,0,0,1,134-11.847a7.38,7.38,0,0,1,.93.058,7.967,7.967,0,0,1,.9.167V-15.1a4.329,4.329,0,0,0-.687-.14,6.2,6.2,0,0,0-.8-.051,4.219,4.219,0,0,0-2.447.677,3.4,3.4,0,0,0-1.347,1.907h-.246v-2.345h-3.992Z" transform="translate(948 2125)" fill="#212936"/>
      <g id="Group_9" data-name="Group 9">
        <circle id="Ellipse_28" data-name="Ellipse 28" cx="28" cy="28" r="28" transform="translate(888 2088)" fill="#76d6c3"/>
        <path id="Icon_material-apps" data-name="Icon material-apps" d="M6,12h6V6H6Zm9,18h6V24H15ZM6,30h6V24H6Zm0-9h6V15H6Zm9,0h6V15H15ZM24,6v6h6V6Zm-9,6h6V6H15Zm9,9h6V15H24Zm0,9h6V24H24Z" transform="translate(898 2098)" fill="#fff"/>
      </g>
    </g>
    <path id="Icon_ionic-md-arrow-round-forward" data-name="Icon ionic-md-arrow-round-forward" d="M20.032,29.011l9.71-9.422a2.142,2.142,0,0,0,.633-1.575v-.028a2.142,2.142,0,0,0-.633-1.575l-9.71-9.422a2.079,2.079,0,0,0-3.038,0,2.326,2.326,0,0,0,0,3.178L22.83,15.75H7.784a2.252,2.252,0,0,0-.007,4.5H22.823l-5.836,5.583a2.326,2.326,0,0,0,0,3.178A2.087,2.087,0,0,0,20.032,29.011Z" transform="translate(525.874 1099)" fill="#212936"/>
    <path id="Icon_ionic-md-arrow-round-forward-2" data-name="Icon ionic-md-arrow-round-forward" d="M20.032,29.011l9.71-9.422a2.142,2.142,0,0,0,.633-1.575v-.028a2.142,2.142,0,0,0-.633-1.575l-9.71-9.422a2.079,2.079,0,0,0-3.038,0,2.326,2.326,0,0,0,0,3.178L22.83,15.75H7.784a2.252,2.252,0,0,0-.007,4.5H22.823l-5.836,5.583a2.326,2.326,0,0,0,0,3.178A2.087,2.087,0,0,0,20.032,29.011Z" transform="translate(816.874 1099)" fill="#212936"/>
  </g>
</svg>
